<?xml version="1.0" encoding="UTF-8"?>
<!DOCTYPE svg PUBLIC "-//W3C//DTD SVG 1.1//EN" "http://www.w3.org/Graphics/SVG/1.1/DTD/svg11.dtd">
<svg xmlns="http://www.w3.org/2000/svg" version="1.1" width="300px" height="300px" style="shape-rendering:geometricPrecision; text-rendering:geometricPrecision; image-rendering:optimizeQuality; fill-rule:evenodd; clip-rule:evenodd" xmlns:xlink="http://www.w3.org/1999/xlink">
<g><path style="opacity:1" fill="#9ebedd" d="M 8.5,-0.5 C 102.5,-0.5 196.5,-0.5 290.5,-0.5C 294.5,1.5 297.5,4.5 299.5,8.5C 299.5,10.5 299.5,12.5 299.5,14.5C 297.021,9.85659 293.355,6.35659 288.5,4C 195.666,3.16757 102.999,3.33423 10.5,4.5C 5.58826,6.40942 1.92159,9.74276 -0.5,14.5C -0.5,12.5 -0.5,10.5 -0.5,8.5C 1.5,4.5 4.5,1.5 8.5,-0.5 Z"/></g>
<g><path style="opacity:1" fill="#538dc2" d="M 10.5,4.5 C 28.5,4.5 46.5,4.5 64.5,4.5C 65.6085,5.28997 66.9419,5.78997 68.5,6C 67.8333,6.33333 67.1667,6.66667 66.5,7C 67.8333,7.33333 69.1667,7.66667 70.5,8C 69.8333,8.33333 69.1667,8.66667 68.5,9C 69.8333,9.33333 71.1667,9.66667 72.5,10C 71.8333,10.3333 71.1667,10.6667 70.5,11C 71.8333,11.3333 73.1667,11.6667 74.5,12C 73.8333,12.3333 73.1667,12.6667 72.5,13C 73.8333,13.3333 75.1667,13.6667 76.5,14C 75.8333,14.3333 75.1667,14.6667 74.5,15C 75.8333,15.3333 77.1667,15.6667 78.5,16C 77.8333,16.3333 77.1667,16.6667 76.5,17C 77.8333,17.3333 79.1667,17.6667 80.5,18C 79.8333,18.3333 79.1667,18.6667 78.5,19C 79.8333,19.3333 81.1667,19.6667 82.5,20C 81.8333,20.3333 81.1667,20.6667 80.5,21C 81.8333,21.3333 83.1667,21.6667 84.5,22C 83.8333,22.3333 83.1667,22.6667 82.5,23C 83.8333,23.3333 85.1667,23.6667 86.5,24C 85.8333,24.3333 85.1667,24.6667 84.5,25C 85.8333,25.3333 87.1667,25.6667 88.5,26C 87.8333,26.3333 87.1667,26.6667 86.5,27C 87.8333,27.3333 89.1667,27.6667 90.5,28C 89.8333,28.3333 89.1667,28.6667 88.5,29C 89.8333,29.3333 91.1667,29.6667 92.5,30C 91.8333,30.3333 91.1667,30.6667 90.5,31C 91.8333,31.3333 93.1667,31.6667 94.5,32C 93.8333,32.3333 93.1667,32.6667 92.5,33C 93.8333,33.3333 95.1667,33.6667 96.5,34C 95.8333,34.3333 95.1667,34.6667 94.5,35C 95.8333,35.3333 97.1667,35.6667 98.5,36C 97.8333,36.3333 97.1667,36.6667 96.5,37C 97.8333,37.3333 99.1667,37.6667 100.5,38C 99.8333,38.3333 99.1667,38.6667 98.5,39C 99.8333,39.3333 101.167,39.6667 102.5,40C 101.833,40.3333 101.167,40.6667 100.5,41C 101.833,41.3333 103.167,41.6667 104.5,42C 103.833,42.3333 103.167,42.6667 102.5,43C 103.833,43.3333 105.167,43.6667 106.5,44C 105.833,44.3333 105.167,44.6667 104.5,45C 105.833,45.3333 107.167,45.6667 108.5,46C 107.833,46.3333 107.167,46.6667 106.5,47C 107.833,47.3333 109.167,47.6667 110.5,48C 109.833,48.3333 109.167,48.6667 108.5,49C 109.833,49.3333 111.167,49.6667 112.5,50C 111.833,50.3333 111.167,50.6667 110.5,51C 111.833,51.3333 113.167,51.6667 114.5,52C 113.833,52.3333 113.167,52.6667 112.5,53C 113.833,53.3333 115.167,53.6667 116.5,54C 115.833,54.3333 115.167,54.6667 114.5,55C 115.833,55.3333 117.167,55.6667 118.5,56C 117.833,56.3333 117.167,56.6667 116.5,57C 117.833,57.3333 119.167,57.6667 120.5,58C 119.833,58.3333 119.167,58.6667 118.5,59C 119.833,59.3333 121.167,59.6667 122.5,60C 121.833,60.3333 121.167,60.6667 120.5,61C 121.833,61.3333 123.167,61.6667 124.5,62C 123.833,62.3333 123.167,62.6667 122.5,63C 123.833,63.3333 125.167,63.6667 126.5,64C 125.833,64.3333 125.167,64.6667 124.5,65C 125.833,65.3333 127.167,65.6667 128.5,66C 127.833,66.3333 127.167,66.6667 126.5,67C 127.833,67.3333 129.167,67.6667 130.5,68C 129.833,68.3333 129.167,68.6667 128.5,69C 129.833,69.3333 131.167,69.6667 132.5,70C 131.833,70.3333 131.167,70.6667 130.5,71C 131.833,71.3333 133.167,71.6667 134.5,72C 133.833,72.3333 133.167,72.6667 132.5,73C 133.833,73.3333 135.167,73.6667 136.5,74C 135.833,74.3333 135.167,74.6667 134.5,75C 135.833,75.3333 137.167,75.6667 138.5,76C 137.833,76.3333 137.167,76.6667 136.5,77C 137.833,77.3333 139.167,77.6667 140.5,78C 139.833,78.3333 139.167,78.6667 138.5,79C 140.101,79.2734 141.601,79.7734 143,80.5C 144.039,79.2899 145.206,78.2899 146.5,77.5C 146.5,79.8333 146.5,82.1667 146.5,84.5C 141.686,84.9072 137.686,86.9072 134.5,90.5C 133.761,90.369 133.094,90.5357 132.5,91C 121.298,102.369 109.965,113.535 98.5,124.5C 96.7078,123.691 94.7078,123.191 92.5,123C 95.1667,122.333 95.1667,121.667 92.5,121C 93.1667,120.667 93.8333,120.333 94.5,120C 92.5,119.667 90.5,119.333 88.5,119C 91.1667,118.333 91.1667,117.667 88.5,117C 89.1667,116.667 89.8333,116.333 90.5,116C 88.5,115.667 86.5,115.333 84.5,115C 87.1667,114.333 87.1667,113.667 84.5,113C 85.1667,112.667 85.8333,112.333 86.5,112C 84.5,111.667 82.5,111.333 80.5,111C 83.1667,110.333 83.1667,109.667 80.5,109C 81.1667,108.667 81.8333,108.333 82.5,108C 80.5,107.667 78.5,107.333 76.5,107C 79.1667,106.333 79.1667,105.667 76.5,105C 77.1667,104.667 77.8333,104.333 78.5,104C 76.5,103.667 74.5,103.333 72.5,103C 75.1667,102.333 75.1667,101.667 72.5,101C 73.1667,100.667 73.8333,100.333 74.5,100C 72.5,99.6667 70.5,99.3333 68.5,99C 71.1667,98.3333 71.1667,97.6667 68.5,97C 69.1667,96.6667 69.8333,96.3333 70.5,96C 68.5,95.6667 66.5,95.3333 64.5,95C 67.1667,94.3333 67.1667,93.6667 64.5,93C 65.1667,92.6667 65.8333,92.3333 66.5,92C 64.5,91.6667 62.5,91.3333 60.5,91C 63.1667,90.3333 63.1667,89.6667 60.5,89C 61.1667,88.6667 61.8333,88.3333 62.5,88C 60.5,87.6667 58.5,87.3333 56.5,87C 59.1667,86.3333 59.1667,85.6667 56.5,85C 57.1667,84.6667 57.8333,84.3333 58.5,84C 56.5,83.6667 54.5,83.3333 52.5,83C 55.1667,82.3333 55.1667,81.6667 52.5,81C 53.1667,80.6667 53.8333,80.3333 54.5,80C 52.5,79.6667 50.5,79.3333 48.5,79C 51.1667,78.3333 51.1667,77.6667 48.5,77C 49.1667,76.6667 49.8333,76.3333 50.5,76C 48.5,75.6667 46.5,75.3333 44.5,75C 47.1667,74.3333 47.1667,73.6667 44.5,73C 45.1667,72.6667 45.8333,72.3333 46.5,72C 44.5,71.6667 42.5,71.3333 40.5,71C 43.1667,70.3333 43.1667,69.6667 40.5,69C 41.1667,68.6667 41.8333,68.3333 42.5,68C 40.5,67.6667 38.5,67.3333 36.5,67C 39.1667,66.3333 39.1667,65.6667 36.5,65C 37.1667,64.6667 37.8333,64.3333 38.5,64C 36.5,63.6667 34.5,63.3333 32.5,63C 35.1667,62.3333 35.1667,61.6667 32.5,61C 33.1667,60.6667 33.8333,60.3333 34.5,60C 32.5,59.6667 30.5,59.3333 28.5,59C 31.1667,58.3333 31.1667,57.6667 28.5,57C 29.1667,56.6667 29.8333,56.3333 30.5,56C 28.5,55.6667 26.5,55.3333 24.5,55C 27.1667,54.3333 27.1667,53.6667 24.5,53C 25.1667,52.6667 25.8333,52.3333 26.5,52C 24.5,51.6667 22.5,51.3333 20.5,51C 23.1667,50.3333 23.1667,49.6667 20.5,49C 21.1667,48.6667 21.8333,48.3333 22.5,48C 20.5,47.6667 18.5,47.3333 16.5,47C 19.1667,46.3333 19.1667,45.6667 16.5,45C 17.1667,44.6667 17.8333,44.3333 18.5,44C 16.5,43.6667 14.5,43.3333 12.5,43C 15.1667,42.3333 15.1667,41.6667 12.5,41C 13.1667,40.6667 13.8333,40.3333 14.5,40C 12.5,39.6667 10.5,39.3333 8.5,39C 11.1667,38.3333 11.1667,37.6667 8.5,37C 9.16667,36.6667 9.83333,36.3333 10.5,36C 8.5,35.6667 6.5,35.3333 4.5,35C 7.16667,34.3333 7.16667,33.6667 4.5,33C 5.16667,32.6667 5.83333,32.3333 6.5,32C 4.5,31.6667 2.5,31.3333 0.5,31C 3.16667,30.3333 3.16667,29.6667 0.5,29C 2.93163,27.9125 2.5983,27.4125 -0.5,27.5C -0.5,23.1667 -0.5,18.8333 -0.5,14.5C 1.92159,9.74276 5.58826,6.40942 10.5,4.5 Z"/></g>
<g><path style="opacity:1" fill="#5991c4" d="M 64.5,4.5 C 88.5,4.5 112.5,4.5 136.5,4.5C 136.918,5.22158 137.584,5.72158 138.5,6C 137.833,6.33333 137.167,6.66667 136.5,7C 138.5,7.33333 140.5,7.66667 142.5,8C 139.833,8.66667 139.833,9.33333 142.5,10C 141.833,10.3333 141.167,10.6667 140.5,11C 142.5,11.3333 144.5,11.6667 146.5,12C 143.833,12.6667 143.833,13.3333 146.5,14C 145.833,14.3333 145.167,14.6667 144.5,15C 146.5,15.3333 148.5,15.6667 150.5,16C 147.833,16.6667 147.833,17.3333 150.5,18C 149.833,18.3333 149.167,18.6667 148.5,19C 150.5,19.3333 152.5,19.6667 154.5,20C 151.833,20.6667 151.833,21.3333 154.5,22C 153.833,22.3333 153.167,22.6667 152.5,23C 154.5,23.3333 156.5,23.6667 158.5,24C 155.833,24.6667 155.833,25.3333 158.5,26C 157.833,26.3333 157.167,26.6667 156.5,27C 158.5,27.3333 160.5,27.6667 162.5,28C 159.833,28.6667 159.833,29.3333 162.5,30C 161.833,30.3333 161.167,30.6667 160.5,31C 162.5,31.3333 164.5,31.6667 166.5,32C 163.833,32.6667 163.833,33.3333 166.5,34C 165.833,34.3333 165.167,34.6667 164.5,35C 166.5,35.3333 168.5,35.6667 170.5,36C 167.833,36.6667 167.833,37.3333 170.5,38C 169.833,38.3333 169.167,38.6667 168.5,39C 170.5,39.3333 172.5,39.6667 174.5,40C 171.833,40.6667 171.833,41.3333 174.5,42C 173.833,42.3333 173.167,42.6667 172.5,43C 174.5,43.3333 176.5,43.6667 178.5,44C 175.833,44.6667 175.833,45.3333 178.5,46C 177.833,46.3333 177.167,46.6667 176.5,47C 178.5,47.3333 180.5,47.6667 182.5,48C 179.833,48.6667 179.833,49.3333 182.5,50C 181.833,50.3333 181.167,50.6667 180.5,51C 182.5,51.3333 184.5,51.6667 186.5,52C 183.833,52.6667 183.833,53.3333 186.5,54C 185.833,54.3333 185.167,54.6667 184.5,55C 186.5,55.3333 188.5,55.6667 190.5,56C 187.833,56.6667 187.833,57.3333 190.5,58C 189.833,58.3333 189.167,58.6667 188.5,59C 190.5,59.3333 192.5,59.6667 194.5,60C 191.833,60.6667 191.833,61.3333 194.5,62C 193.833,62.3333 193.167,62.6667 192.5,63C 194.5,63.3333 196.5,63.6667 198.5,64C 195.833,64.6667 195.833,65.3333 198.5,66C 197.833,66.3333 197.167,66.6667 196.5,67C 198.5,67.3333 200.5,67.6667 202.5,68C 199.833,68.6667 199.833,69.3333 202.5,70C 201.833,70.3333 201.167,70.6667 200.5,71C 202.5,71.3333 204.5,71.6667 206.5,72C 203.833,72.6667 203.833,73.3333 206.5,74C 205.833,74.3333 205.167,74.6667 204.5,75C 206.5,75.3333 208.5,75.6667 210.5,76C 207.833,76.6667 207.833,77.3333 210.5,78C 209.833,78.3333 209.167,78.6667 208.5,79C 210.5,79.3333 212.5,79.6667 214.5,80C 211.833,80.6667 211.833,81.3333 214.5,82C 213.833,82.3333 213.167,82.6667 212.5,83C 214.5,83.3333 216.5,83.6667 218.5,84C 215.833,84.6667 215.833,85.3333 218.5,86C 217.833,86.3333 217.167,86.6667 216.5,87C 218.5,87.3333 220.5,87.6667 222.5,88C 219.833,88.6667 219.833,89.3333 222.5,90C 221.833,90.3333 221.167,90.6667 220.5,91C 222.5,91.3333 224.5,91.6667 226.5,92C 223.833,92.6667 223.833,93.3333 226.5,94C 225.833,94.3333 225.167,94.6667 224.5,95C 226.5,95.3333 228.5,95.6667 230.5,96C 227.833,96.6667 227.833,97.3333 230.5,98C 229.833,98.3333 229.167,98.6667 228.5,99C 230.5,99.3333 232.5,99.6667 234.5,100C 231.833,100.667 231.833,101.333 234.5,102C 233.833,102.333 233.167,102.667 232.5,103C 234.5,103.333 236.5,103.667 238.5,104C 235.833,104.667 235.833,105.333 238.5,106C 237.833,106.333 237.167,106.667 236.5,107C 238.5,107.333 240.5,107.667 242.5,108C 239.833,108.667 239.833,109.333 242.5,110C 241.833,110.333 241.167,110.667 240.5,111C 242.5,111.333 244.5,111.667 246.5,112C 243.833,112.667 243.833,113.333 246.5,114C 245.833,114.333 245.167,114.667 244.5,115C 246.5,115.333 248.5,115.667 250.5,116C 247.833,116.667 247.833,117.333 250.5,118C 249.833,118.333 249.167,118.667 248.5,119C 250.5,119.333 252.5,119.667 254.5,120C 251.833,120.667 251.833,121.333 254.5,122C 253.833,122.333 253.167,122.667 252.5,123C 254.5,123.333 256.5,123.667 258.5,124C 255.833,124.667 255.833,125.333 258.5,126C 257.833,126.333 257.167,126.667 256.5,127C 258.5,127.333 260.5,127.667 262.5,128C 259.833,128.667 259.833,129.333 262.5,130C 261.833,130.333 261.167,130.667 260.5,131C 262.5,131.333 264.5,131.667 266.5,132C 263.833,132.667 263.833,133.333 266.5,134C 265.833,134.333 265.167,134.667 264.5,135C 266.5,135.333 268.5,135.667 270.5,136C 267.833,136.667 267.833,137.333 270.5,138C 269.833,138.333 269.167,138.667 268.5,139C 270.5,139.333 272.5,139.667 274.5,140C 271.833,140.667 271.833,141.333 274.5,142C 273.833,142.333 273.167,142.667 272.5,143C 274.5,143.333 276.5,143.667 278.5,144C 275.833,144.667 275.833,145.333 278.5,146C 277.833,146.333 277.167,146.667 276.5,147C 278.5,147.333 280.5,147.667 282.5,148C 279.833,148.667 279.833,149.333 282.5,150C 281.833,150.333 281.167,150.667 280.5,151C 282.5,151.333 284.5,151.667 286.5,152C 283.833,152.667 283.833,153.333 286.5,154C 285.833,154.333 285.167,154.667 284.5,155C 286.5,155.333 288.5,155.667 290.5,156C 287.833,156.667 287.833,157.333 290.5,158C 289.833,158.333 289.167,158.667 288.5,159C 290.5,159.333 292.5,159.667 294.5,160C 291.833,160.667 291.833,161.333 294.5,162C 293.833,162.333 293.167,162.667 292.5,163C 294.5,163.333 296.5,163.667 298.5,164C 295.833,164.667 295.833,165.333 298.5,166C 296.068,167.087 296.402,167.587 299.5,167.5C 299.5,190.833 299.5,214.167 299.5,237.5C 298.621,236.424 296.954,235.59 294.5,235C 295.167,234.667 295.833,234.333 296.5,234C 295.167,233.667 293.833,233.333 292.5,233C 293.167,232.667 293.833,232.333 294.5,232C 293.167,231.667 291.833,231.333 290.5,231C 291.167,230.667 291.833,230.333 292.5,230C 291.167,229.667 289.833,229.333 288.5,229C 289.167,228.667 289.833,228.333 290.5,228C 289.167,227.667 287.833,227.333 286.5,227C 287.167,226.667 287.833,226.333 288.5,226C 287.167,225.667 285.833,225.333 284.5,225C 285.167,224.667 285.833,224.333 286.5,224C 285.167,223.667 283.833,223.333 282.5,223C 283.167,222.667 283.833,222.333 284.5,222C 283.167,221.667 281.833,221.333 280.5,221C 281.167,220.667 281.833,220.333 282.5,220C 281.167,219.667 279.833,219.333 278.5,219C 279.167,218.667 279.833,218.333 280.5,218C 279.167,217.667 277.833,217.333 276.5,217C 277.167,216.667 277.833,216.333 278.5,216C 277.167,215.667 275.833,215.333 274.5,215C 275.167,214.667 275.833,214.333 276.5,214C 275.167,213.667 273.833,213.333 272.5,213C 273.167,212.667 273.833,212.333 274.5,212C 273.167,211.667 271.833,211.333 270.5,211C 271.167,210.667 271.833,210.333 272.5,210C 271.167,209.667 269.833,209.333 268.5,209C 269.167,208.667 269.833,208.333 270.5,208C 269.167,207.667 267.833,207.333 266.5,207C 267.167,206.667 267.833,206.333 268.5,206C 267.167,205.667 265.833,205.333 264.5,205C 265.167,204.667 265.833,204.333 266.5,204C 265.167,203.667 263.833,203.333 262.5,203C 263.167,202.667 263.833,202.333 264.5,202C 263.167,201.667 261.833,201.333 260.5,201C 261.167,200.667 261.833,200.333 262.5,200C 261.167,199.667 259.833,199.333 258.5,199C 259.167,198.667 259.833,198.333 260.5,198C 259.167,197.667 257.833,197.333 256.5,197C 257.167,196.667 257.833,196.333 258.5,196C 257.167,195.667 255.833,195.333 254.5,195C 255.167,194.667 255.833,194.333 256.5,194C 255.167,193.667 253.833,193.333 252.5,193C 253.167,192.667 253.833,192.333 254.5,192C 253.167,191.667 251.833,191.333 250.5,191C 251.167,190.667 251.833,190.333 252.5,190C 251.167,189.667 249.833,189.333 248.5,189C 249.167,188.667 249.833,188.333 250.5,188C 249.167,187.667 247.833,187.333 246.5,187C 247.167,186.667 247.833,186.333 248.5,186C 247.167,185.667 245.833,185.333 244.5,185C 245.167,184.667 245.833,184.333 246.5,184C 245.167,183.667 243.833,183.333 242.5,183C 243.167,182.667 243.833,182.333 244.5,182C 243.167,181.667 241.833,181.333 240.5,181C 241.167,180.667 241.833,180.333 242.5,180C 241.167,179.667 239.833,179.333 238.5,179C 239.167,178.667 239.833,178.333 240.5,178C 239.167,177.667 237.833,177.333 236.5,177C 237.167,176.667 237.833,176.333 238.5,176C 237.207,175.51 235.873,175.343 234.5,175.5C 234.768,177.099 234.434,178.432 233.5,179.5C 233.214,168.699 228.214,165.533 218.5,170C 207.736,179.433 196.403,188.1 184.5,196C 170.5,196.667 156.5,196.667 142.5,196C 141.619,195.292 140.953,194.458 140.5,193.5C 150.454,192.715 160.454,192.215 170.5,192C 175.849,190.488 178.183,186.988 177.5,181.5C 178.962,174.921 176.629,170.421 170.5,168C 160.839,167.5 151.172,167.334 141.5,167.5C 144.963,163.536 148.63,159.702 152.5,156C 159.144,156.718 162.144,153.885 161.5,147.5C 161.194,144.615 161.527,141.948 162.5,139.5C 162.201,141.604 162.534,143.604 163.5,145.5C 172.572,143.477 176.905,138.144 176.5,129.5C 179.306,121.501 177.306,115.001 170.5,110C 165.453,107.999 160.453,106.166 155.5,104.5C 159.204,104.724 162.871,104.89 166.5,105C 168.667,102.833 170.833,100.667 173,98.5C 173.64,96.735 173.473,95.0683 172.5,93.5C 173.752,91.6612 173.752,89.8278 172.5,88C 169.107,85.9243 165.44,84.7576 161.5,84.5C 162.807,74.9882 158.807,71.8215 149.5,75C 148.627,76.045 147.627,76.8783 146.5,77.5C 145.206,78.2899 144.039,79.2899 143,80.5C 141.601,79.7734 140.101,79.2734 138.5,79C 139.167,78.6667 139.833,78.3333 140.5,78C 139.167,77.6667 137.833,77.3333 136.5,77C 137.167,76.6667 137.833,76.3333 138.5,76C 137.167,75.6667 135.833,75.3333 134.5,75C 135.167,74.6667 135.833,74.3333 136.5,74C 135.167,73.6667 133.833,73.3333 132.5,73C 133.167,72.6667 133.833,72.3333 134.5,72C 133.167,71.6667 131.833,71.3333 130.5,71C 131.167,70.6667 131.833,70.3333 132.5,70C 131.167,69.6667 129.833,69.3333 128.5,69C 129.167,68.6667 129.833,68.3333 130.5,68C 129.167,67.6667 127.833,67.3333 126.5,67C 127.167,66.6667 127.833,66.3333 128.5,66C 127.167,65.6667 125.833,65.3333 124.5,65C 125.167,64.6667 125.833,64.3333 126.5,64C 125.167,63.6667 123.833,63.3333 122.5,63C 123.167,62.6667 123.833,62.3333 124.5,62C 123.167,61.6667 121.833,61.3333 120.5,61C 121.167,60.6667 121.833,60.3333 122.5,60C 121.167,59.6667 119.833,59.3333 118.5,59C 119.167,58.6667 119.833,58.3333 120.5,58C 119.167,57.6667 117.833,57.3333 116.5,57C 117.167,56.6667 117.833,56.3333 118.5,56C 117.167,55.6667 115.833,55.3333 114.5,55C 115.167,54.6667 115.833,54.3333 116.5,54C 115.167,53.6667 113.833,53.3333 112.5,53C 113.167,52.6667 113.833,52.3333 114.5,52C 113.167,51.6667 111.833,51.3333 110.5,51C 111.167,50.6667 111.833,50.3333 112.5,50C 111.167,49.6667 109.833,49.3333 108.5,49C 109.167,48.6667 109.833,48.3333 110.5,48C 109.167,47.6667 107.833,47.3333 106.5,47C 107.167,46.6667 107.833,46.3333 108.5,46C 107.167,45.6667 105.833,45.3333 104.5,45C 105.167,44.6667 105.833,44.3333 106.5,44C 105.167,43.6667 103.833,43.3333 102.5,43C 103.167,42.6667 103.833,42.3333 104.5,42C 103.167,41.6667 101.833,41.3333 100.5,41C 101.167,40.6667 101.833,40.3333 102.5,40C 101.167,39.6667 99.8333,39.3333 98.5,39C 99.1667,38.6667 99.8333,38.3333 100.5,38C 99.1667,37.6667 97.8333,37.3333 96.5,37C 97.1667,36.6667 97.8333,36.3333 98.5,36C 97.1667,35.6667 95.8333,35.3333 94.5,35C 95.1667,34.6667 95.8333,34.3333 96.5,34C 95.1667,33.6667 93.8333,33.3333 92.5,33C 93.1667,32.6667 93.8333,32.3333 94.5,32C 93.1667,31.6667 91.8333,31.3333 90.5,31C 91.1667,30.6667 91.8333,30.3333 92.5,30C 91.1667,29.6667 89.8333,29.3333 88.5,29C 89.1667,28.6667 89.8333,28.3333 90.5,28C 89.1667,27.6667 87.8333,27.3333 86.5,27C 87.1667,26.6667 87.8333,26.3333 88.5,26C 87.1667,25.6667 85.8333,25.3333 84.5,25C 85.1667,24.6667 85.8333,24.3333 86.5,24C 85.1667,23.6667 83.8333,23.3333 82.5,23C 83.1667,22.6667 83.8333,22.3333 84.5,22C 83.1667,21.6667 81.8333,21.3333 80.5,21C 81.1667,20.6667 81.8333,20.3333 82.5,20C 81.1667,19.6667 79.8333,19.3333 78.5,19C 79.1667,18.6667 79.8333,18.3333 80.5,18C 79.1667,17.6667 77.8333,17.3333 76.5,17C 77.1667,16.6667 77.8333,16.3333 78.5,16C 77.1667,15.6667 75.8333,15.3333 74.5,15C 75.1667,14.6667 75.8333,14.3333 76.5,14C 75.1667,13.6667 73.8333,13.3333 72.5,13C 73.1667,12.6667 73.8333,12.3333 74.5,12C 73.1667,11.6667 71.8333,11.3333 70.5,11C 71.1667,10.6667 71.8333,10.3333 72.5,10C 71.1667,9.66667 69.8333,9.33333 68.5,9C 69.1667,8.66667 69.8333,8.33333 70.5,8C 69.1667,7.66667 67.8333,7.33333 66.5,7C 67.1667,6.66667 67.8333,6.33333 68.5,6C 66.9419,5.78997 65.6085,5.28997 64.5,4.5 Z"/></g>
<g><path style="opacity:1" fill="#6096c9" d="M 136.5,4.5 C 157.887,4.04512 179.22,4.54512 200.5,6C 199.833,6.33333 199.167,6.66667 198.5,7C 200.774,7.47023 202.774,8.47023 204.5,10C 203.833,10.3333 203.167,10.6667 202.5,11C 203.833,11.3333 205.167,11.6667 206.5,12C 205.833,12.3333 205.167,12.6667 204.5,13C 205.833,13.3333 207.167,13.6667 208.5,14C 207.833,14.3333 207.167,14.6667 206.5,15C 208.774,15.4702 210.774,16.4702 212.5,18C 211.833,18.3333 211.167,18.6667 210.5,19C 211.833,19.3333 213.167,19.6667 214.5,20C 213.833,20.3333 213.167,20.6667 212.5,21C 213.833,21.3333 215.167,21.6667 216.5,22C 215.833,22.3333 215.167,22.6667 214.5,23C 216.774,23.4702 218.774,24.4702 220.5,26C 219.833,26.3333 219.167,26.6667 218.5,27C 219.833,27.3333 221.167,27.6667 222.5,28C 221.833,28.3333 221.167,28.6667 220.5,29C 221.833,29.3333 223.167,29.6667 224.5,30C 223.833,30.3333 223.167,30.6667 222.5,31C 224.774,31.4702 226.774,32.4702 228.5,34C 227.833,34.3333 227.167,34.6667 226.5,35C 227.833,35.3333 229.167,35.6667 230.5,36C 229.833,36.3333 229.167,36.6667 228.5,37C 229.833,37.3333 231.167,37.6667 232.5,38C 231.833,38.3333 231.167,38.6667 230.5,39C 232.774,39.4702 234.774,40.4702 236.5,42C 235.833,42.3333 235.167,42.6667 234.5,43C 235.833,43.3333 237.167,43.6667 238.5,44C 237.833,44.3333 237.167,44.6667 236.5,45C 237.833,45.3333 239.167,45.6667 240.5,46C 239.833,46.3333 239.167,46.6667 238.5,47C 240.774,47.4702 242.774,48.4702 244.5,50C 243.833,50.3333 243.167,50.6667 242.5,51C 243.833,51.3333 245.167,51.6667 246.5,52C 245.833,52.3333 245.167,52.6667 244.5,53C 245.833,53.3333 247.167,53.6667 248.5,54C 247.833,54.3333 247.167,54.6667 246.5,55C 248.774,55.4702 250.774,56.4702 252.5,58C 251.833,58.3333 251.167,58.6667 250.5,59C 251.833,59.3333 253.167,59.6667 254.5,60C 253.833,60.3333 253.167,60.6667 252.5,61C 253.833,61.3333 255.167,61.6667 256.5,62C 255.833,62.3333 255.167,62.6667 254.5,63C 256.774,63.4702 258.774,64.4702 260.5,66C 259.833,66.3333 259.167,66.6667 258.5,67C 259.833,67.3333 261.167,67.6667 262.5,68C 261.833,68.3333 261.167,68.6667 260.5,69C 261.833,69.3333 263.167,69.6667 264.5,70C 263.833,70.3333 263.167,70.6667 262.5,71C 264.774,71.4702 266.774,72.4702 268.5,74C 267.833,74.3333 267.167,74.6667 266.5,75C 267.833,75.3333 269.167,75.6667 270.5,76C 269.833,76.3333 269.167,76.6667 268.5,77C 269.833,77.3333 271.167,77.6667 272.5,78C 271.833,78.3333 271.167,78.6667 270.5,79C 272.774,79.4702 274.774,80.4702 276.5,82C 275.833,82.3333 275.167,82.6667 274.5,83C 275.833,83.3333 277.167,83.6667 278.5,84C 277.833,84.3333 277.167,84.6667 276.5,85C 277.833,85.3333 279.167,85.6667 280.5,86C 279.833,86.3333 279.167,86.6667 278.5,87C 280.774,87.4702 282.774,88.4702 284.5,90C 283.833,90.3333 283.167,90.6667 282.5,91C 283.833,91.3333 285.167,91.6667 286.5,92C 285.833,92.3333 285.167,92.6667 284.5,93C 285.833,93.3333 287.167,93.6667 288.5,94C 287.833,94.3333 287.167,94.6667 286.5,95C 288.774,95.4702 290.774,96.4702 292.5,98C 291.833,98.3333 291.167,98.6667 290.5,99C 291.833,99.3333 293.167,99.6667 294.5,100C 293.833,100.333 293.167,100.667 292.5,101C 293.833,101.333 295.167,101.667 296.5,102C 295.833,102.333 295.167,102.667 294.5,103C 296.503,103.335 298.17,104.168 299.5,105.5C 299.5,126.167 299.5,146.833 299.5,167.5C 296.402,167.587 296.068,167.087 298.5,166C 295.833,165.333 295.833,164.667 298.5,164C 296.5,163.667 294.5,163.333 292.5,163C 293.167,162.667 293.833,162.333 294.5,162C 291.833,161.333 291.833,160.667 294.5,160C 292.5,159.667 290.5,159.333 288.5,159C 289.167,158.667 289.833,158.333 290.5,158C 287.833,157.333 287.833,156.667 290.5,156C 288.5,155.667 286.5,155.333 284.5,155C 285.167,154.667 285.833,154.333 286.5,154C 283.833,153.333 283.833,152.667 286.5,152C 284.5,151.667 282.5,151.333 280.5,151C 281.167,150.667 281.833,150.333 282.5,150C 279.833,149.333 279.833,148.667 282.5,148C 280.5,147.667 278.5,147.333 276.5,147C 277.167,146.667 277.833,146.333 278.5,146C 275.833,145.333 275.833,144.667 278.5,144C 276.5,143.667 274.5,143.333 272.5,143C 273.167,142.667 273.833,142.333 274.5,142C 271.833,141.333 271.833,140.667 274.5,140C 272.5,139.667 270.5,139.333 268.5,139C 269.167,138.667 269.833,138.333 270.5,138C 267.833,137.333 267.833,136.667 270.5,136C 268.5,135.667 266.5,135.333 264.5,135C 265.167,134.667 265.833,134.333 266.5,134C 263.833,133.333 263.833,132.667 266.5,132C 264.5,131.667 262.5,131.333 260.5,131C 261.167,130.667 261.833,130.333 262.5,130C 259.833,129.333 259.833,128.667 262.5,128C 260.5,127.667 258.5,127.333 256.5,127C 257.167,126.667 257.833,126.333 258.5,126C 255.833,125.333 255.833,124.667 258.5,124C 256.5,123.667 254.5,123.333 252.5,123C 253.167,122.667 253.833,122.333 254.5,122C 251.833,121.333 251.833,120.667 254.5,120C 252.5,119.667 250.5,119.333 248.5,119C 249.167,118.667 249.833,118.333 250.5,118C 247.833,117.333 247.833,116.667 250.5,116C 248.5,115.667 246.5,115.333 244.5,115C 245.167,114.667 245.833,114.333 246.5,114C 243.833,113.333 243.833,112.667 246.5,112C 244.5,111.667 242.5,111.333 240.5,111C 241.167,110.667 241.833,110.333 242.5,110C 239.833,109.333 239.833,108.667 242.5,108C 240.5,107.667 238.5,107.333 236.5,107C 237.167,106.667 237.833,106.333 238.5,106C 235.833,105.333 235.833,104.667 238.5,104C 236.5,103.667 234.5,103.333 232.5,103C 233.167,102.667 233.833,102.333 234.5,102C 231.833,101.333 231.833,100.667 234.5,100C 232.5,99.6667 230.5,99.3333 228.5,99C 229.167,98.6667 229.833,98.3333 230.5,98C 227.833,97.3333 227.833,96.6667 230.5,96C 228.5,95.6667 226.5,95.3333 224.5,95C 225.167,94.6667 225.833,94.3333 226.5,94C 223.833,93.3333 223.833,92.6667 226.5,92C 224.5,91.6667 222.5,91.3333 220.5,91C 221.167,90.6667 221.833,90.3333 222.5,90C 219.833,89.3333 219.833,88.6667 222.5,88C 220.5,87.6667 218.5,87.3333 216.5,87C 217.167,86.6667 217.833,86.3333 218.5,86C 215.833,85.3333 215.833,84.6667 218.5,84C 216.5,83.6667 214.5,83.3333 212.5,83C 213.167,82.6667 213.833,82.3333 214.5,82C 211.833,81.3333 211.833,80.6667 214.5,80C 212.5,79.6667 210.5,79.3333 208.5,79C 209.167,78.6667 209.833,78.3333 210.5,78C 207.833,77.3333 207.833,76.6667 210.5,76C 208.5,75.6667 206.5,75.3333 204.5,75C 205.167,74.6667 205.833,74.3333 206.5,74C 203.833,73.3333 203.833,72.6667 206.5,72C 204.5,71.6667 202.5,71.3333 200.5,71C 201.167,70.6667 201.833,70.3333 202.5,70C 199.833,69.3333 199.833,68.6667 202.5,68C 200.5,67.6667 198.5,67.3333 196.5,67C 197.167,66.6667 197.833,66.3333 198.5,66C 195.833,65.3333 195.833,64.6667 198.5,64C 196.5,63.6667 194.5,63.3333 192.5,63C 193.167,62.6667 193.833,62.3333 194.5,62C 191.833,61.3333 191.833,60.6667 194.5,60C 192.5,59.6667 190.5,59.3333 188.5,59C 189.167,58.6667 189.833,58.3333 190.5,58C 187.833,57.3333 187.833,56.6667 190.5,56C 188.5,55.6667 186.5,55.3333 184.5,55C 185.167,54.6667 185.833,54.3333 186.5,54C 183.833,53.3333 183.833,52.6667 186.5,52C 184.5,51.6667 182.5,51.3333 180.5,51C 181.167,50.6667 181.833,50.3333 182.5,50C 179.833,49.3333 179.833,48.6667 182.5,48C 180.5,47.6667 178.5,47.3333 176.5,47C 177.167,46.6667 177.833,46.3333 178.5,46C 175.833,45.3333 175.833,44.6667 178.5,44C 176.5,43.6667 174.5,43.3333 172.5,43C 173.167,42.6667 173.833,42.3333 174.5,42C 171.833,41.3333 171.833,40.6667 174.5,40C 172.5,39.6667 170.5,39.3333 168.5,39C 169.167,38.6667 169.833,38.3333 170.5,38C 167.833,37.3333 167.833,36.6667 170.5,36C 168.5,35.6667 166.5,35.3333 164.5,35C 165.167,34.6667 165.833,34.3333 166.5,34C 163.833,33.3333 163.833,32.6667 166.5,32C 164.5,31.6667 162.5,31.3333 160.5,31C 161.167,30.6667 161.833,30.3333 162.5,30C 159.833,29.3333 159.833,28.6667 162.5,28C 160.5,27.6667 158.5,27.3333 156.5,27C 157.167,26.6667 157.833,26.3333 158.5,26C 155.833,25.3333 155.833,24.6667 158.5,24C 156.5,23.6667 154.5,23.3333 152.5,23C 153.167,22.6667 153.833,22.3333 154.5,22C 151.833,21.3333 151.833,20.6667 154.5,20C 152.5,19.6667 150.5,19.3333 148.5,19C 149.167,18.6667 149.833,18.3333 150.5,18C 147.833,17.3333 147.833,16.6667 150.5,16C 148.5,15.6667 146.5,15.3333 144.5,15C 145.167,14.6667 145.833,14.3333 146.5,14C 143.833,13.3333 143.833,12.6667 146.5,12C 144.5,11.6667 142.5,11.3333 140.5,11C 141.167,10.6667 141.833,10.3333 142.5,10C 139.833,9.33333 139.833,8.66667 142.5,8C 140.5,7.66667 138.5,7.33333 136.5,7C 137.167,6.66667 137.833,6.33333 138.5,6C 137.584,5.72158 136.918,5.22158 136.5,4.5 Z"/></g>
<g><path style="opacity:1" fill="#689cce" d="M 10.5,4.5 C 102.999,3.33423 195.666,3.16757 288.5,4C 293.355,6.35659 297.021,9.85659 299.5,14.5C 299.5,44.8333 299.5,75.1667 299.5,105.5C 298.17,104.168 296.503,103.335 294.5,103C 295.167,102.667 295.833,102.333 296.5,102C 295.167,101.667 293.833,101.333 292.5,101C 293.167,100.667 293.833,100.333 294.5,100C 293.167,99.6667 291.833,99.3333 290.5,99C 291.167,98.6667 291.833,98.3333 292.5,98C 290.774,96.4702 288.774,95.4702 286.5,95C 287.167,94.6667 287.833,94.3333 288.5,94C 287.167,93.6667 285.833,93.3333 284.5,93C 285.167,92.6667 285.833,92.3333 286.5,92C 285.167,91.6667 283.833,91.3333 282.5,91C 283.167,90.6667 283.833,90.3333 284.5,90C 282.774,88.4702 280.774,87.4702 278.5,87C 279.167,86.6667 279.833,86.3333 280.5,86C 279.167,85.6667 277.833,85.3333 276.5,85C 277.167,84.6667 277.833,84.3333 278.5,84C 277.167,83.6667 275.833,83.3333 274.5,83C 275.167,82.6667 275.833,82.3333 276.5,82C 274.774,80.4702 272.774,79.4702 270.5,79C 271.167,78.6667 271.833,78.3333 272.5,78C 271.167,77.6667 269.833,77.3333 268.5,77C 269.167,76.6667 269.833,76.3333 270.5,76C 269.167,75.6667 267.833,75.3333 266.5,75C 267.167,74.6667 267.833,74.3333 268.5,74C 266.774,72.4702 264.774,71.4702 262.5,71C 263.167,70.6667 263.833,70.3333 264.5,70C 263.167,69.6667 261.833,69.3333 260.5,69C 261.167,68.6667 261.833,68.3333 262.5,68C 261.167,67.6667 259.833,67.3333 258.5,67C 259.167,66.6667 259.833,66.3333 260.5,66C 258.774,64.4702 256.774,63.4702 254.5,63C 255.167,62.6667 255.833,62.3333 256.5,62C 255.167,61.6667 253.833,61.3333 252.5,61C 253.167,60.6667 253.833,60.3333 254.5,60C 253.167,59.6667 251.833,59.3333 250.5,59C 251.167,58.6667 251.833,58.3333 252.5,58C 250.774,56.4702 248.774,55.4702 246.5,55C 247.167,54.6667 247.833,54.3333 248.5,54C 247.167,53.6667 245.833,53.3333 244.5,53C 245.167,52.6667 245.833,52.3333 246.5,52C 245.167,51.6667 243.833,51.3333 242.5,51C 243.167,50.6667 243.833,50.3333 244.5,50C 242.774,48.4702 240.774,47.4702 238.5,47C 239.167,46.6667 239.833,46.3333 240.5,46C 239.167,45.6667 237.833,45.3333 236.5,45C 237.167,44.6667 237.833,44.3333 238.5,44C 237.167,43.6667 235.833,43.3333 234.5,43C 235.167,42.6667 235.833,42.3333 236.5,42C 234.774,40.4702 232.774,39.4702 230.5,39C 231.167,38.6667 231.833,38.3333 232.5,38C 231.167,37.6667 229.833,37.3333 228.5,37C 229.167,36.6667 229.833,36.3333 230.5,36C 229.167,35.6667 227.833,35.3333 226.5,35C 227.167,34.6667 227.833,34.3333 228.5,34C 226.774,32.4702 224.774,31.4702 222.5,31C 223.167,30.6667 223.833,30.3333 224.5,30C 223.167,29.6667 221.833,29.3333 220.5,29C 221.167,28.6667 221.833,28.3333 222.5,28C 221.167,27.6667 219.833,27.3333 218.5,27C 219.167,26.6667 219.833,26.3333 220.5,26C 218.774,24.4702 216.774,23.4702 214.5,23C 215.167,22.6667 215.833,22.3333 216.5,22C 215.167,21.6667 213.833,21.3333 212.5,21C 213.167,20.6667 213.833,20.3333 214.5,20C 213.167,19.6667 211.833,19.3333 210.5,19C 211.167,18.6667 211.833,18.3333 212.5,18C 210.774,16.4702 208.774,15.4702 206.5,15C 207.167,14.6667 207.833,14.3333 208.5,14C 207.167,13.6667 205.833,13.3333 204.5,13C 205.167,12.6667 205.833,12.3333 206.5,12C 205.167,11.6667 203.833,11.3333 202.5,11C 203.167,10.6667 203.833,10.3333 204.5,10C 202.774,8.47023 200.774,7.47023 198.5,7C 199.167,6.66667 199.833,6.33333 200.5,6C 179.22,4.54512 157.887,4.04512 136.5,4.5C 112.5,4.5 88.5,4.5 64.5,4.5C 46.5,4.5 28.5,4.5 10.5,4.5 Z"/></g>
<g><path style="opacity:1" fill="#4e8ac2" d="M -0.5,27.5 C 2.5983,27.4125 2.93163,27.9125 0.5,29C 3.16667,29.6667 3.16667,30.3333 0.5,31C 2.5,31.3333 4.5,31.6667 6.5,32C 5.83333,32.3333 5.16667,32.6667 4.5,33C 7.16667,33.6667 7.16667,34.3333 4.5,35C 6.5,35.3333 8.5,35.6667 10.5,36C 9.83333,36.3333 9.16667,36.6667 8.5,37C 11.1667,37.6667 11.1667,38.3333 8.5,39C 10.5,39.3333 12.5,39.6667 14.5,40C 13.8333,40.3333 13.1667,40.6667 12.5,41C 15.1667,41.6667 15.1667,42.3333 12.5,43C 14.5,43.3333 16.5,43.6667 18.5,44C 17.8333,44.3333 17.1667,44.6667 16.5,45C 19.1667,45.6667 19.1667,46.3333 16.5,47C 18.5,47.3333 20.5,47.6667 22.5,48C 21.8333,48.3333 21.1667,48.6667 20.5,49C 23.1667,49.6667 23.1667,50.3333 20.5,51C 22.5,51.3333 24.5,51.6667 26.5,52C 25.8333,52.3333 25.1667,52.6667 24.5,53C 27.1667,53.6667 27.1667,54.3333 24.5,55C 26.5,55.3333 28.5,55.6667 30.5,56C 29.8333,56.3333 29.1667,56.6667 28.5,57C 31.1667,57.6667 31.1667,58.3333 28.5,59C 30.5,59.3333 32.5,59.6667 34.5,60C 33.8333,60.3333 33.1667,60.6667 32.5,61C 35.1667,61.6667 35.1667,62.3333 32.5,63C 34.5,63.3333 36.5,63.6667 38.5,64C 37.8333,64.3333 37.1667,64.6667 36.5,65C 39.1667,65.6667 39.1667,66.3333 36.5,67C 38.5,67.3333 40.5,67.6667 42.5,68C 41.8333,68.3333 41.1667,68.6667 40.5,69C 43.1667,69.6667 43.1667,70.3333 40.5,71C 42.5,71.3333 44.5,71.6667 46.5,72C 45.8333,72.3333 45.1667,72.6667 44.5,73C 47.1667,73.6667 47.1667,74.3333 44.5,75C 46.5,75.3333 48.5,75.6667 50.5,76C 49.8333,76.3333 49.1667,76.6667 48.5,77C 51.1667,77.6667 51.1667,78.3333 48.5,79C 50.5,79.3333 52.5,79.6667 54.5,80C 53.8333,80.3333 53.1667,80.6667 52.5,81C 55.1667,81.6667 55.1667,82.3333 52.5,83C 54.5,83.3333 56.5,83.6667 58.5,84C 57.8333,84.3333 57.1667,84.6667 56.5,85C 59.1667,85.6667 59.1667,86.3333 56.5,87C 58.5,87.3333 60.5,87.6667 62.5,88C 61.8333,88.3333 61.1667,88.6667 60.5,89C 63.1667,89.6667 63.1667,90.3333 60.5,91C 62.5,91.3333 64.5,91.6667 66.5,92C 65.8333,92.3333 65.1667,92.6667 64.5,93C 67.1667,93.6667 67.1667,94.3333 64.5,95C 66.5,95.3333 68.5,95.6667 70.5,96C 69.8333,96.3333 69.1667,96.6667 68.5,97C 71.1667,97.6667 71.1667,98.3333 68.5,99C 70.5,99.3333 72.5,99.6667 74.5,100C 73.8333,100.333 73.1667,100.667 72.5,101C 75.1667,101.667 75.1667,102.333 72.5,103C 74.5,103.333 76.5,103.667 78.5,104C 77.8333,104.333 77.1667,104.667 76.5,105C 79.1667,105.667 79.1667,106.333 76.5,107C 78.5,107.333 80.5,107.667 82.5,108C 81.8333,108.333 81.1667,108.667 80.5,109C 83.1667,109.667 83.1667,110.333 80.5,111C 82.5,111.333 84.5,111.667 86.5,112C 85.8333,112.333 85.1667,112.667 84.5,113C 87.1667,113.667 87.1667,114.333 84.5,115C 86.5,115.333 88.5,115.667 90.5,116C 89.8333,116.333 89.1667,116.667 88.5,117C 91.1667,117.667 91.1667,118.333 88.5,119C 90.5,119.333 92.5,119.667 94.5,120C 93.8333,120.333 93.1667,120.667 92.5,121C 95.1667,121.667 95.1667,122.333 92.5,123C 94.7078,123.191 96.7078,123.691 98.5,124.5C 88.5,134.833 78.5,145.167 68.5,155.5C 45.5,178.167 22.5,200.833 -0.5,223.5C -0.5,158.167 -0.5,92.8333 -0.5,27.5 Z"/></g>
<g><path style="opacity:1" fill="#eeefef" d="M 172.5,93.5 C 170.109,95.8937 167.443,97.8937 164.5,99.5C 158.541,98.5859 152.541,98.2526 146.5,98.5C 146.5,99.8333 146.5,101.167 146.5,102.5C 149.426,103.461 152.426,104.127 155.5,104.5C 160.453,106.166 165.453,107.999 170.5,110C 177.306,115.001 179.306,121.501 176.5,129.5C 173.634,135.274 168.967,138.607 162.5,139.5C 161.527,141.948 161.194,144.615 161.5,147.5C 157.731,149.419 153.731,149.919 149.5,149C 148.29,147.961 147.29,146.794 146.5,145.5C 146.5,143.5 146.5,141.5 146.5,139.5C 143.037,138.901 139.704,137.901 136.5,136.5C 135.489,134.598 135.322,132.598 136,130.5C 138.074,128.548 140.241,126.715 142.5,125C 146.109,125.238 149.775,125.405 153.5,125.5C 156.187,125.664 158.854,125.497 161.5,125C 162.731,123.817 162.731,122.651 161.5,121.5C 154.448,119.487 147.448,117.321 140.5,115C 136.202,112.541 133.202,109.041 131.5,104.5C 129.995,99.3375 130.995,94.6708 134.5,90.5C 137.686,86.9072 141.686,84.9072 146.5,84.5C 146.5,82.1667 146.5,79.8333 146.5,77.5C 147.627,76.8783 148.627,76.045 149.5,75C 158.807,71.8215 162.807,74.9882 161.5,84.5C 165.44,84.7576 169.107,85.9243 172.5,88C 173.752,89.8278 173.752,91.6612 172.5,93.5 Z"/></g>
<g><path style="opacity:1" fill="#37536e" d="M 172.5,93.5 C 173.473,95.0683 173.64,96.735 173,98.5C 170.833,100.667 168.667,102.833 166.5,105C 162.871,104.89 159.204,104.724 155.5,104.5C 152.426,104.127 149.426,103.461 146.5,102.5C 146.5,101.167 146.5,99.8333 146.5,98.5C 152.541,98.2526 158.541,98.5859 164.5,99.5C 167.443,97.8937 170.109,95.8937 172.5,93.5 Z"/></g>
<g><path style="opacity:1" fill="#324d66" d="M 131.5,104.5 C 133.202,109.041 136.202,112.541 140.5,115C 147.448,117.321 154.448,119.487 161.5,121.5C 162.731,122.651 162.731,123.817 161.5,125C 158.854,125.497 156.187,125.664 153.5,125.5C 145.398,124.363 138.565,120.697 133,114.5C 132.019,112.04 131.185,109.54 130.5,107C 130.528,105.93 130.861,105.097 131.5,104.5 Z"/></g>
<g><path style="opacity:1" fill="#416e97" d="M 134.5,90.5 C 130.995,94.6708 129.995,99.3375 131.5,104.5C 130.861,105.097 130.528,105.93 130.5,107C 131.185,109.54 132.019,112.04 133,114.5C 138.565,120.697 145.398,124.363 153.5,125.5C 149.775,125.405 146.109,125.238 142.5,125C 140.241,126.715 138.074,128.548 136,130.5C 135.322,132.598 135.489,134.598 136.5,136.5C 135.193,138.223 135.193,140.057 136.5,142C 139.605,143.868 142.938,145.035 146.5,145.5C 147.29,146.794 148.29,147.961 149.5,149C 153.731,149.919 157.731,149.419 161.5,147.5C 162.144,153.885 159.144,156.718 152.5,156C 148.63,159.702 144.963,163.536 141.5,167.5C 123.085,163.779 107.085,168.112 93.5,180.5C 92.0484,179.698 90.3817,179.198 88.5,179C 90.5,178.667 92.5,178.333 94.5,178C 89.1667,177.333 89.1667,176.667 94.5,176C 91.1667,175.667 87.8333,175.333 84.5,175C 92.5,174.333 92.5,173.667 84.5,173C 86.5,172.667 88.5,172.333 90.5,172C 87.1667,171.667 83.8333,171.333 80.5,171C 82.5,170.667 84.5,170.333 86.5,170C 81.1667,169.333 81.1667,168.667 86.5,168C 83.1667,167.667 79.8333,167.333 76.5,167C 84.5,166.333 84.5,165.667 76.5,165C 78.5,164.667 80.5,164.333 82.5,164C 79.1667,163.667 75.8333,163.333 72.5,163C 74.5,162.667 76.5,162.333 78.5,162C 73.1667,161.333 73.1667,160.667 78.5,160C 75.1667,159.667 71.8333,159.333 68.5,159C 76.5,158.333 76.5,157.667 68.5,157C 76.4728,156.174 76.4728,155.674 68.5,155.5C 78.5,145.167 88.5,134.833 98.5,124.5C 109.965,113.535 121.298,102.369 132.5,91C 133.094,90.5357 133.761,90.369 134.5,90.5 Z"/></g>
<g><path style="opacity:1" fill="#3a5a79" d="M 176.5,129.5 C 176.905,138.144 172.572,143.477 163.5,145.5C 162.534,143.604 162.201,141.604 162.5,139.5C 168.967,138.607 173.634,135.274 176.5,129.5 Z"/></g>
<g><path style="opacity:1" fill="#2f4b64" d="M 136.5,136.5 C 139.704,137.901 143.037,138.901 146.5,139.5C 146.5,141.5 146.5,143.5 146.5,145.5C 142.938,145.035 139.605,143.868 136.5,142C 135.193,140.057 135.193,138.223 136.5,136.5 Z"/></g>
<g><path style="opacity:1" fill="#3c6c98" d="M 68.5,155.5 C 76.4728,155.674 76.4728,156.174 68.5,157C 76.5,157.667 76.5,158.333 68.5,159C 71.8333,159.333 75.1667,159.667 78.5,160C 73.1667,160.667 73.1667,161.333 78.5,162C 76.5,162.333 74.5,162.667 72.5,163C 75.8333,163.333 79.1667,163.667 82.5,164C 80.5,164.333 78.5,164.667 76.5,165C 84.5,165.667 84.5,166.333 76.5,167C 79.8333,167.333 83.1667,167.667 86.5,168C 81.1667,168.667 81.1667,169.333 86.5,170C 84.5,170.333 82.5,170.667 80.5,171C 83.8333,171.333 87.1667,171.667 90.5,172C 88.5,172.333 86.5,172.667 84.5,173C 92.5,173.667 92.5,174.333 84.5,175C 87.8333,175.333 91.1667,175.667 94.5,176C 89.1667,176.667 89.1667,177.333 94.5,178C 92.5,178.333 90.5,178.667 88.5,179C 90.3817,179.198 92.0484,179.698 93.5,180.5C 91.3962,182.099 89.3962,183.932 87.5,186C 81.1667,186.333 74.8333,186.667 68.5,187C 67.5838,187.374 66.7504,187.874 66,188.5C 65.1894,200.243 65.3561,211.909 66.5,223.5C 65.0584,225.817 65.3918,227.984 67.5,230C 104.5,230.667 141.5,230.667 178.5,230C 184.239,227.408 189.573,224.241 194.5,220.5C 170.368,245.132 146.035,269.632 121.5,294C 177.166,294.5 232.832,294.667 288.5,294.5C 196,295.399 103.333,295.399 10.5,294.5C 4.91003,293.242 1.24337,289.908 -0.5,284.5C -0.5,264.167 -0.5,243.833 -0.5,223.5C 22.5,200.833 45.5,178.167 68.5,155.5 Z"/></g>
<g><path style="opacity:1" fill="#f1f1f2" d="M 141.5,167.5 C 151.172,167.334 160.839,167.5 170.5,168C 176.629,170.421 178.962,174.921 177.5,181.5C 175.567,183.596 173.233,185.096 170.5,186C 161.167,186.333 151.833,186.667 142.5,187C 140.771,188.789 140.104,190.956 140.5,193.5C 140.953,194.458 141.619,195.292 142.5,196C 156.5,196.667 170.5,196.667 184.5,196C 196.403,188.1 207.736,179.433 218.5,170C 228.214,165.533 233.214,168.699 233.5,179.5C 233.443,180.609 233.11,181.609 232.5,182.5C 218.356,194.469 204.023,206.302 189.5,218C 186.498,220.503 183.165,222.503 179.5,224C 141.762,224.826 104.095,224.66 66.5,223.5C 65.3561,211.909 65.1894,200.243 66,188.5C 66.7504,187.874 67.5838,187.374 68.5,187C 74.8333,186.667 81.1667,186.333 87.5,186C 89.3962,183.932 91.3962,182.099 93.5,180.5C 107.085,168.112 123.085,163.779 141.5,167.5 Z"/></g>
<g><path style="opacity:1" fill="#528cc2" d="M 299.5,237.5 C 299.5,252.833 299.5,268.167 299.5,283.5C 297.868,289.132 294.202,292.798 288.5,294.5C 232.832,294.667 177.166,294.5 121.5,294C 146.035,269.632 170.368,245.132 194.5,220.5C 206.02,210.153 218.02,200.319 230.5,191C 233.299,188.489 233.965,185.655 232.5,182.5C 233.11,181.609 233.443,180.609 233.5,179.5C 234.434,178.432 234.768,177.099 234.5,175.5C 235.873,175.343 237.207,175.51 238.5,176C 237.833,176.333 237.167,176.667 236.5,177C 237.833,177.333 239.167,177.667 240.5,178C 239.833,178.333 239.167,178.667 238.5,179C 239.833,179.333 241.167,179.667 242.5,180C 241.833,180.333 241.167,180.667 240.5,181C 241.833,181.333 243.167,181.667 244.5,182C 243.833,182.333 243.167,182.667 242.5,183C 243.833,183.333 245.167,183.667 246.5,184C 245.833,184.333 245.167,184.667 244.5,185C 245.833,185.333 247.167,185.667 248.5,186C 247.833,186.333 247.167,186.667 246.5,187C 247.833,187.333 249.167,187.667 250.5,188C 249.833,188.333 249.167,188.667 248.5,189C 249.833,189.333 251.167,189.667 252.5,190C 251.833,190.333 251.167,190.667 250.5,191C 251.833,191.333 253.167,191.667 254.5,192C 253.833,192.333 253.167,192.667 252.5,193C 253.833,193.333 255.167,193.667 256.5,194C 255.833,194.333 255.167,194.667 254.5,195C 255.833,195.333 257.167,195.667 258.5,196C 257.833,196.333 257.167,196.667 256.5,197C 257.833,197.333 259.167,197.667 260.5,198C 259.833,198.333 259.167,198.667 258.5,199C 259.833,199.333 261.167,199.667 262.5,200C 261.833,200.333 261.167,200.667 260.5,201C 261.833,201.333 263.167,201.667 264.5,202C 263.833,202.333 263.167,202.667 262.5,203C 263.833,203.333 265.167,203.667 266.5,204C 265.833,204.333 265.167,204.667 264.5,205C 265.833,205.333 267.167,205.667 268.5,206C 267.833,206.333 267.167,206.667 266.5,207C 267.833,207.333 269.167,207.667 270.5,208C 269.833,208.333 269.167,208.667 268.5,209C 269.833,209.333 271.167,209.667 272.5,210C 271.833,210.333 271.167,210.667 270.5,211C 271.833,211.333 273.167,211.667 274.5,212C 273.833,212.333 273.167,212.667 272.5,213C 273.833,213.333 275.167,213.667 276.5,214C 275.833,214.333 275.167,214.667 274.5,215C 275.833,215.333 277.167,215.667 278.5,216C 277.833,216.333 277.167,216.667 276.5,217C 277.833,217.333 279.167,217.667 280.5,218C 279.833,218.333 279.167,218.667 278.5,219C 279.833,219.333 281.167,219.667 282.5,220C 281.833,220.333 281.167,220.667 280.5,221C 281.833,221.333 283.167,221.667 284.5,222C 283.833,222.333 283.167,222.667 282.5,223C 283.833,223.333 285.167,223.667 286.5,224C 285.833,224.333 285.167,224.667 284.5,225C 285.833,225.333 287.167,225.667 288.5,226C 287.833,226.333 287.167,226.667 286.5,227C 287.833,227.333 289.167,227.667 290.5,228C 289.833,228.333 289.167,228.667 288.5,229C 289.833,229.333 291.167,229.667 292.5,230C 291.833,230.333 291.167,230.667 290.5,231C 291.833,231.333 293.167,231.667 294.5,232C 293.833,232.333 293.167,232.667 292.5,233C 293.833,233.333 295.167,233.667 296.5,234C 295.833,234.333 295.167,234.667 294.5,235C 296.954,235.59 298.621,236.424 299.5,237.5 Z"/></g>
<g><path style="opacity:1" fill="#2d4963" d="M 177.5,181.5 C 178.183,186.988 175.849,190.488 170.5,192C 160.454,192.215 150.454,192.715 140.5,193.5C 140.104,190.956 140.771,188.789 142.5,187C 151.833,186.667 161.167,186.333 170.5,186C 173.233,185.096 175.567,183.596 177.5,181.5 Z"/></g>
<g><path style="opacity:1" fill="#29455f" d="M 232.5,182.5 C 233.965,185.655 233.299,188.489 230.5,191C 218.02,200.319 206.02,210.153 194.5,220.5C 189.573,224.241 184.239,227.408 178.5,230C 141.5,230.667 104.5,230.667 67.5,230C 65.3918,227.984 65.0584,225.817 66.5,223.5C 104.095,224.66 141.762,224.826 179.5,224C 183.165,222.503 186.498,220.503 189.5,218C 204.023,206.302 218.356,194.469 232.5,182.5 Z"/></g>
<g><path style="opacity:1" fill="#335471" d="M -0.5,284.5 C 1.24337,289.908 4.91003,293.242 10.5,294.5C 46.6644,295.333 82.9977,295.833 119.5,296C 118.29,297.039 117.29,298.206 116.5,299.5C 80.8333,299.5 45.1667,299.5 9.5,299.5C 5.29934,297.971 1.966,295.304 -0.5,291.5C -0.5,289.167 -0.5,286.833 -0.5,284.5 Z"/></g>
<g><path style="opacity:1" fill="#406689" d="M 299.5,283.5 C 299.5,285.833 299.5,288.167 299.5,290.5C 297.413,294.922 294.08,297.922 289.5,299.5C 231.833,299.5 174.167,299.5 116.5,299.5C 117.29,298.206 118.29,297.039 119.5,296C 82.9977,295.833 46.6644,295.333 10.5,294.5C 103.333,295.399 196,295.399 288.5,294.5C 294.202,292.798 297.868,289.132 299.5,283.5 Z"/></g>
</svg>
