<?xml version="1.0" encoding="UTF-8"?>
<!DOCTYPE svg PUBLIC "-//W3C//DTD SVG 1.1//EN" "http://www.w3.org/Graphics/SVG/1.1/DTD/svg11.dtd">
<svg xmlns="http://www.w3.org/2000/svg" version="1.1" width="300px" height="300px" style="shape-rendering:geometricPrecision; text-rendering:geometricPrecision; image-rendering:optimizeQuality; fill-rule:evenodd; clip-rule:evenodd" xmlns:xlink="http://www.w3.org/1999/xlink">
<g><path style="opacity:1" fill="#e0a1d0" d="M 8.5,-0.5 C 65.8333,-0.5 123.167,-0.5 180.5,-0.5C 180.082,0.221579 179.416,0.721579 178.5,1C 179.833,1.33333 181.167,1.66667 182.5,2C 181.584,2.27842 180.918,2.77842 180.5,3.5C 123.664,3.16766 66.9975,3.50099 10.5,4.5C 7.38551,4.55481 5.05217,5.88814 3.5,8.5C 1.71039,10.2722 0.377058,12.2722 -0.5,14.5C -0.5,12.5 -0.5,10.5 -0.5,8.5C 1.5,4.5 4.5,1.5 8.5,-0.5 Z"/></g>
<g><path style="opacity:1" fill="#e8acd8" d="M 180.5,-0.5 C 217.167,-0.5 253.833,-0.5 290.5,-0.5C 294.5,1.5 297.5,4.5 299.5,8.5C 299.5,10.5 299.5,12.5 299.5,14.5C 297.053,9.82406 293.387,6.32406 288.5,4C 252.502,3.50001 216.502,3.33335 180.5,3.5C 180.918,2.77842 181.584,2.27842 182.5,2C 181.167,1.66667 179.833,1.33333 178.5,1C 179.416,0.721579 180.082,0.221579 180.5,-0.5 Z"/></g>
<g><path style="opacity:1" fill="#d367b6" d="M 10.5,4.5 C 41.1667,4.5 71.8333,4.5 102.5,4.5C 103.609,5.28997 104.942,5.78997 106.5,6C 105.833,6.33333 105.167,6.66667 104.5,7C 105.833,7.33333 107.167,7.66667 108.5,8C 107.833,8.33333 107.167,8.66667 106.5,9C 107.833,9.33333 109.167,9.66667 110.5,10C 109.833,10.3333 109.167,10.6667 108.5,11C 109.833,11.3333 111.167,11.6667 112.5,12C 111.833,12.3333 111.167,12.6667 110.5,13C 111.833,13.3333 113.167,13.6667 114.5,14C 113.833,14.3333 113.167,14.6667 112.5,15C 113.833,15.3333 115.167,15.6667 116.5,16C 115.833,16.3333 115.167,16.6667 114.5,17C 115.833,17.3333 117.167,17.6667 118.5,18C 117.833,18.3333 117.167,18.6667 116.5,19C 117.833,19.3333 119.167,19.6667 120.5,20C 119.833,20.3333 119.167,20.6667 118.5,21C 119.833,21.3333 121.167,21.6667 122.5,22C 121.833,22.3333 121.167,22.6667 120.5,23C 121.833,23.3333 123.167,23.6667 124.5,24C 123.833,24.3333 123.167,24.6667 122.5,25C 123.833,25.3333 125.167,25.6667 126.5,26C 125.833,26.3333 125.167,26.6667 124.5,27C 125.833,27.3333 127.167,27.6667 128.5,28C 127.833,28.3333 127.167,28.6667 126.5,29C 127.833,29.3333 129.167,29.6667 130.5,30C 129.833,30.3333 129.167,30.6667 128.5,31C 129.833,31.3333 131.167,31.6667 132.5,32C 131.833,32.3333 131.167,32.6667 130.5,33C 131.833,33.3333 133.167,33.6667 134.5,34C 133.833,34.3333 133.167,34.6667 132.5,35C 133.833,35.3333 135.167,35.6667 136.5,36C 135.833,36.3333 135.167,36.6667 134.5,37C 135.833,37.3333 137.167,37.6667 138.5,38C 137.833,38.3333 137.167,38.6667 136.5,39C 137.833,39.3333 139.167,39.6667 140.5,40C 139.833,40.3333 139.167,40.6667 138.5,41C 139.833,41.3333 141.167,41.6667 142.5,42C 141.833,42.3333 141.167,42.6667 140.5,43C 141.833,43.3333 143.167,43.6667 144.5,44C 143.833,44.3333 143.167,44.6667 142.5,45C 143.833,45.3333 145.167,45.6667 146.5,46C 145.833,46.3333 145.167,46.6667 144.5,47C 145.833,47.3333 147.167,47.6667 148.5,48C 147.833,48.3333 147.167,48.6667 146.5,49C 147.833,49.3333 149.167,49.6667 150.5,50C 149.833,50.3333 149.167,50.6667 148.5,51C 149.833,51.3333 151.167,51.6667 152.5,52C 151.833,52.3333 151.167,52.6667 150.5,53C 151.833,53.3333 153.167,53.6667 154.5,54C 153.833,54.3333 153.167,54.6667 152.5,55C 153.833,55.3333 155.167,55.6667 156.5,56C 155.833,56.3333 155.167,56.6667 154.5,57C 155.833,57.3333 157.167,57.6667 158.5,58C 157.833,58.3333 157.167,58.6667 156.5,59C 157.833,59.3333 159.167,59.6667 160.5,60C 159.833,60.3333 159.167,60.6667 158.5,61C 159.833,61.3333 161.167,61.6667 162.5,62C 161.833,62.3333 161.167,62.6667 160.5,63C 161.833,63.3333 163.167,63.6667 164.5,64C 163.833,64.3333 163.167,64.6667 162.5,65C 163.833,65.3333 165.167,65.6667 166.5,66C 165.833,66.3333 165.167,66.6667 164.5,67C 165.833,67.3333 167.167,67.6667 168.5,68C 167.833,68.3333 167.167,68.6667 166.5,69C 167.833,69.3333 169.167,69.6667 170.5,70C 169.833,70.3333 169.167,70.6667 168.5,71C 169.833,71.3333 171.167,71.6667 172.5,72C 170.934,72.6082 169.6,73.4415 168.5,74.5C 165.536,76.9619 162.703,79.6286 160,82.5C 159.817,79.6353 159.317,76.9686 158.5,74.5C 137.831,74.3334 117.164,74.5 96.5,75C 95.2899,76.0391 94.2899,77.2058 93.5,78.5C 90.5,81.1667 87.5,83.8333 84.5,86.5C 83.3915,85.71 82.0581,85.21 80.5,85C 81.1667,84.6667 81.8333,84.3333 82.5,84C 80.5,83.6667 78.5,83.3333 76.5,83C 81.8333,82.3333 81.8333,81.6667 76.5,81C 77.1667,80.6667 77.8333,80.3333 78.5,80C 76.5,79.6667 74.5,79.3333 72.5,79C 77.8333,78.3333 77.8333,77.6667 72.5,77C 73.1667,76.6667 73.8333,76.3333 74.5,76C 72.5,75.6667 70.5,75.3333 68.5,75C 73.8333,74.3333 73.8333,73.6667 68.5,73C 69.1667,72.6667 69.8333,72.3333 70.5,72C 68.5,71.6667 66.5,71.3333 64.5,71C 69.8333,70.3333 69.8333,69.6667 64.5,69C 65.1667,68.6667 65.8333,68.3333 66.5,68C 64.5,67.6667 62.5,67.3333 60.5,67C 65.8333,66.3333 65.8333,65.6667 60.5,65C 61.1667,64.6667 61.8333,64.3333 62.5,64C 60.5,63.6667 58.5,63.3333 56.5,63C 61.8333,62.3333 61.8333,61.6667 56.5,61C 57.1667,60.6667 57.8333,60.3333 58.5,60C 56.5,59.6667 54.5,59.3333 52.5,59C 57.8333,58.3333 57.8333,57.6667 52.5,57C 53.1667,56.6667 53.8333,56.3333 54.5,56C 52.5,55.6667 50.5,55.3333 48.5,55C 53.8333,54.3333 53.8333,53.6667 48.5,53C 49.1667,52.6667 49.8333,52.3333 50.5,52C 48.5,51.6667 46.5,51.3333 44.5,51C 49.8333,50.3333 49.8333,49.6667 44.5,49C 45.1667,48.6667 45.8333,48.3333 46.5,48C 44.5,47.6667 42.5,47.3333 40.5,47C 45.8333,46.3333 45.8333,45.6667 40.5,45C 41.1667,44.6667 41.8333,44.3333 42.5,44C 40.5,43.6667 38.5,43.3333 36.5,43C 41.8333,42.3333 41.8333,41.6667 36.5,41C 37.1667,40.6667 37.8333,40.3333 38.5,40C 36.5,39.6667 34.5,39.3333 32.5,39C 37.8333,38.3333 37.8333,37.6667 32.5,37C 33.1667,36.6667 33.8333,36.3333 34.5,36C 32.5,35.6667 30.5,35.3333 28.5,35C 33.8333,34.3333 33.8333,33.6667 28.5,33C 29.1667,32.6667 29.8333,32.3333 30.5,32C 28.5,31.6667 26.5,31.3333 24.5,31C 29.8333,30.3333 29.8333,29.6667 24.5,29C 25.1667,28.6667 25.8333,28.3333 26.5,28C 24.5,27.6667 22.5,27.3333 20.5,27C 25.8333,26.3333 25.8333,25.6667 20.5,25C 21.1667,24.6667 21.8333,24.3333 22.5,24C 20.5,23.6667 18.5,23.3333 16.5,23C 21.8333,22.3333 21.8333,21.6667 16.5,21C 17.1667,20.6667 17.8333,20.3333 18.5,20C 16.5,19.6667 14.5,19.3333 12.5,19C 17.8333,18.3333 17.8333,17.6667 12.5,17C 13.1667,16.6667 13.8333,16.3333 14.5,16C 12.5,15.6667 10.5,15.3333 8.5,15C 13.8333,14.3333 13.8333,13.6667 8.5,13C 9.16667,12.6667 9.83333,12.3333 10.5,12C 8.5,11.6667 6.5,11.3333 4.5,11C 9.3646,10.2016 9.03127,9.36826 3.5,8.5C 5.05217,5.88814 7.38551,4.55481 10.5,4.5 Z"/></g>
<g><path style="opacity:1" fill="#d56cba" d="M 102.5,4.5 C 119.167,4.5 135.833,4.5 152.5,4.5C 152.918,5.22158 153.584,5.72158 154.5,6C 153.833,6.33333 153.167,6.66667 152.5,7C 154.5,7.33333 156.5,7.66667 158.5,8C 155.833,8.66667 155.833,9.33333 158.5,10C 157.833,10.3333 157.167,10.6667 156.5,11C 158.5,11.3333 160.5,11.6667 162.5,12C 159.833,12.6667 159.833,13.3333 162.5,14C 161.833,14.3333 161.167,14.6667 160.5,15C 162.5,15.3333 164.5,15.6667 166.5,16C 163.833,16.6667 163.833,17.3333 166.5,18C 165.833,18.3333 165.167,18.6667 164.5,19C 166.5,19.3333 168.5,19.6667 170.5,20C 167.833,20.6667 167.833,21.3333 170.5,22C 169.833,22.3333 169.167,22.6667 168.5,23C 170.5,23.3333 172.5,23.6667 174.5,24C 171.833,24.6667 171.833,25.3333 174.5,26C 173.833,26.3333 173.167,26.6667 172.5,27C 174.5,27.3333 176.5,27.6667 178.5,28C 175.833,28.6667 175.833,29.3333 178.5,30C 177.833,30.3333 177.167,30.6667 176.5,31C 178.5,31.3333 180.5,31.6667 182.5,32C 179.833,32.6667 179.833,33.3333 182.5,34C 181.833,34.3333 181.167,34.6667 180.5,35C 182.5,35.3333 184.5,35.6667 186.5,36C 183.833,36.6667 183.833,37.3333 186.5,38C 185.833,38.3333 185.167,38.6667 184.5,39C 186.5,39.3333 188.5,39.6667 190.5,40C 187.833,40.6667 187.833,41.3333 190.5,42C 189.833,42.3333 189.167,42.6667 188.5,43C 190.5,43.3333 192.5,43.6667 194.5,44C 191.833,44.6667 191.833,45.3333 194.5,46C 193.833,46.3333 193.167,46.6667 192.5,47C 194.5,47.3333 196.5,47.6667 198.5,48C 195.833,48.6667 195.833,49.3333 198.5,50C 197.833,50.3333 197.167,50.6667 196.5,51C 198.5,51.3333 200.5,51.6667 202.5,52C 199.833,52.6667 199.833,53.3333 202.5,54C 201.833,54.3333 201.167,54.6667 200.5,55C 202.5,55.3333 204.5,55.6667 206.5,56C 203.833,56.6667 203.833,57.3333 206.5,58C 205.833,58.3333 205.167,58.6667 204.5,59C 206.5,59.3333 208.5,59.6667 210.5,60C 207.833,60.6667 207.833,61.3333 210.5,62C 209.833,62.3333 209.167,62.6667 208.5,63C 210.5,63.3333 212.5,63.6667 214.5,64C 211.833,64.6667 211.833,65.3333 214.5,66C 213.833,66.3333 213.167,66.6667 212.5,67C 214.5,67.3333 216.5,67.6667 218.5,68C 215.833,68.6667 215.833,69.3333 218.5,70C 217.833,70.3333 217.167,70.6667 216.5,71C 218.5,71.3333 220.5,71.6667 222.5,72C 219.833,72.6667 219.833,73.3333 222.5,74C 221.833,74.3333 221.167,74.6667 220.5,75C 222.5,75.3333 224.5,75.6667 226.5,76C 223.833,76.6667 223.833,77.3333 226.5,78C 225.833,78.3333 225.167,78.6667 224.5,79C 226.5,79.3333 228.5,79.6667 230.5,80C 227.833,80.6667 227.833,81.3333 230.5,82C 229.833,82.3333 229.167,82.6667 228.5,83C 230.5,83.3333 232.5,83.6667 234.5,84C 231.833,84.6667 231.833,85.3333 234.5,86C 233.833,86.3333 233.167,86.6667 232.5,87C 234.5,87.3333 236.5,87.6667 238.5,88C 235.833,88.6667 235.833,89.3333 238.5,90C 237.833,90.3333 237.167,90.6667 236.5,91C 238.5,91.3333 240.5,91.6667 242.5,92C 239.833,92.6667 239.833,93.3333 242.5,94C 241.833,94.3333 241.167,94.6667 240.5,95C 242.5,95.3333 244.5,95.6667 246.5,96C 243.833,96.6667 243.833,97.3333 246.5,98C 245.833,98.3333 245.167,98.6667 244.5,99C 246.5,99.3333 248.5,99.6667 250.5,100C 247.833,100.667 247.833,101.333 250.5,102C 249.833,102.333 249.167,102.667 248.5,103C 250.5,103.333 252.5,103.667 254.5,104C 251.833,104.667 251.833,105.333 254.5,106C 253.833,106.333 253.167,106.667 252.5,107C 254.5,107.333 256.5,107.667 258.5,108C 255.833,108.667 255.833,109.333 258.5,110C 257.833,110.333 257.167,110.667 256.5,111C 258.5,111.333 260.5,111.667 262.5,112C 259.833,112.667 259.833,113.333 262.5,114C 261.833,114.333 261.167,114.667 260.5,115C 262.5,115.333 264.5,115.667 266.5,116C 263.833,116.667 263.833,117.333 266.5,118C 265.833,118.333 265.167,118.667 264.5,119C 266.5,119.333 268.5,119.667 270.5,120C 267.833,120.667 267.833,121.333 270.5,122C 269.833,122.333 269.167,122.667 268.5,123C 270.5,123.333 272.5,123.667 274.5,124C 271.833,124.667 271.833,125.333 274.5,126C 273.833,126.333 273.167,126.667 272.5,127C 274.5,127.333 276.5,127.667 278.5,128C 275.833,128.667 275.833,129.333 278.5,130C 277.833,130.333 277.167,130.667 276.5,131C 278.5,131.333 280.5,131.667 282.5,132C 279.833,132.667 279.833,133.333 282.5,134C 281.833,134.333 281.167,134.667 280.5,135C 282.5,135.333 284.5,135.667 286.5,136C 283.833,136.667 283.833,137.333 286.5,138C 285.833,138.333 285.167,138.667 284.5,139C 286.5,139.333 288.5,139.667 290.5,140C 287.833,140.667 287.833,141.333 290.5,142C 289.833,142.333 289.167,142.667 288.5,143C 290.5,143.333 292.5,143.667 294.5,144C 291.833,144.667 291.833,145.333 294.5,146C 293.833,146.333 293.167,146.667 292.5,147C 294.5,147.333 296.5,147.667 298.5,148C 295.833,148.667 295.833,149.333 298.5,150C 296.068,151.087 296.402,151.587 299.5,151.5C 299.5,167.5 299.5,183.5 299.5,199.5C 298.621,198.424 296.954,197.59 294.5,197C 295.167,196.667 295.833,196.333 296.5,196C 295.167,195.667 293.833,195.333 292.5,195C 293.167,194.667 293.833,194.333 294.5,194C 293.167,193.667 291.833,193.333 290.5,193C 291.167,192.667 291.833,192.333 292.5,192C 291.167,191.667 289.833,191.333 288.5,191C 289.167,190.667 289.833,190.333 290.5,190C 289.167,189.667 287.833,189.333 286.5,189C 287.167,188.667 287.833,188.333 288.5,188C 287.167,187.667 285.833,187.333 284.5,187C 285.167,186.667 285.833,186.333 286.5,186C 285.167,185.667 283.833,185.333 282.5,185C 283.167,184.667 283.833,184.333 284.5,184C 283.167,183.667 281.833,183.333 280.5,183C 281.167,182.667 281.833,182.333 282.5,182C 281.167,181.667 279.833,181.333 278.5,181C 279.167,180.667 279.833,180.333 280.5,180C 279.167,179.667 277.833,179.333 276.5,179C 277.167,178.667 277.833,178.333 278.5,178C 277.167,177.667 275.833,177.333 274.5,177C 275.167,176.667 275.833,176.333 276.5,176C 275.167,175.667 273.833,175.333 272.5,175C 273.167,174.667 273.833,174.333 274.5,174C 273.167,173.667 271.833,173.333 270.5,173C 271.167,172.667 271.833,172.333 272.5,172C 271.167,171.667 269.833,171.333 268.5,171C 269.167,170.667 269.833,170.333 270.5,170C 269.167,169.667 267.833,169.333 266.5,169C 267.167,168.667 267.833,168.333 268.5,168C 267.167,167.667 265.833,167.333 264.5,167C 265.167,166.667 265.833,166.333 266.5,166C 265.167,165.667 263.833,165.333 262.5,165C 263.167,164.667 263.833,164.333 264.5,164C 263.167,163.667 261.833,163.333 260.5,163C 261.167,162.667 261.833,162.333 262.5,162C 261.167,161.667 259.833,161.333 258.5,161C 259.167,160.667 259.833,160.333 260.5,160C 259.167,159.667 257.833,159.333 256.5,159C 257.167,158.667 257.833,158.333 258.5,158C 257.167,157.667 255.833,157.333 254.5,157C 255.167,156.667 255.833,156.333 256.5,156C 255.167,155.667 253.833,155.333 252.5,155C 253.167,154.667 253.833,154.333 254.5,154C 253.167,153.667 251.833,153.333 250.5,153C 251.167,152.667 251.833,152.333 252.5,152C 251.167,151.667 249.833,151.333 248.5,151C 249.167,150.667 249.833,150.333 250.5,150C 249.167,149.667 247.833,149.333 246.5,149C 247.167,148.667 247.833,148.333 248.5,148C 247.167,147.667 245.833,147.333 244.5,147C 245.167,146.667 245.833,146.333 246.5,146C 245.167,145.667 243.833,145.333 242.5,145C 243.167,144.667 243.833,144.333 244.5,144C 243.167,143.667 241.833,143.333 240.5,143C 241.167,142.667 241.833,142.333 242.5,142C 241.167,141.667 239.833,141.333 238.5,141C 239.167,140.667 239.833,140.333 240.5,140C 239.167,139.667 237.833,139.333 236.5,139C 237.167,138.667 237.833,138.333 238.5,138C 237.167,137.667 235.833,137.333 234.5,137C 235.167,136.667 235.833,136.333 236.5,136C 235.167,135.667 233.833,135.333 232.5,135C 233.167,134.667 233.833,134.333 234.5,134C 233.167,133.667 231.833,133.333 230.5,133C 231.167,132.667 231.833,132.333 232.5,132C 231.167,131.667 229.833,131.333 228.5,131C 229.167,130.667 229.833,130.333 230.5,130C 229.167,129.667 227.833,129.333 226.5,129C 227.167,128.667 227.833,128.333 228.5,128C 227.167,127.667 225.833,127.333 224.5,127C 225.167,126.667 225.833,126.333 226.5,126C 225.167,125.667 223.833,125.333 222.5,125C 223.167,124.667 223.833,124.333 224.5,124C 223.167,123.667 221.833,123.333 220.5,123C 221.167,122.667 221.833,122.333 222.5,122C 221.167,121.667 219.833,121.333 218.5,121C 219.167,120.667 219.833,120.333 220.5,120C 219.167,119.667 217.833,119.333 216.5,119C 217.167,118.667 217.833,118.333 218.5,118C 217.167,117.667 215.833,117.333 214.5,117C 215.167,116.667 215.833,116.333 216.5,116C 215.167,115.667 213.833,115.333 212.5,115C 213.167,114.667 213.833,114.333 214.5,114C 213.167,113.667 211.833,113.333 210.5,113C 211.167,112.667 211.833,112.333 212.5,112C 211.167,111.667 209.833,111.333 208.5,111C 211.063,110.237 211.063,109.737 208.5,109.5C 207.261,109.942 206.261,110.609 205.5,111.5C 205.702,109.011 205.202,106.677 204,104.5C 193.529,95.0302 183.363,85.1969 173.5,75C 171.866,74.5065 170.199,74.3398 168.5,74.5C 169.6,73.4415 170.934,72.6082 172.5,72C 171.167,71.6667 169.833,71.3333 168.5,71C 169.167,70.6667 169.833,70.3333 170.5,70C 169.167,69.6667 167.833,69.3333 166.5,69C 167.167,68.6667 167.833,68.3333 168.5,68C 167.167,67.6667 165.833,67.3333 164.5,67C 165.167,66.6667 165.833,66.3333 166.5,66C 165.167,65.6667 163.833,65.3333 162.5,65C 163.167,64.6667 163.833,64.3333 164.5,64C 163.167,63.6667 161.833,63.3333 160.5,63C 161.167,62.6667 161.833,62.3333 162.5,62C 161.167,61.6667 159.833,61.3333 158.5,61C 159.167,60.6667 159.833,60.3333 160.5,60C 159.167,59.6667 157.833,59.3333 156.5,59C 157.167,58.6667 157.833,58.3333 158.5,58C 157.167,57.6667 155.833,57.3333 154.5,57C 155.167,56.6667 155.833,56.3333 156.5,56C 155.167,55.6667 153.833,55.3333 152.5,55C 153.167,54.6667 153.833,54.3333 154.5,54C 153.167,53.6667 151.833,53.3333 150.5,53C 151.167,52.6667 151.833,52.3333 152.5,52C 151.167,51.6667 149.833,51.3333 148.5,51C 149.167,50.6667 149.833,50.3333 150.5,50C 149.167,49.6667 147.833,49.3333 146.5,49C 147.167,48.6667 147.833,48.3333 148.5,48C 147.167,47.6667 145.833,47.3333 144.5,47C 145.167,46.6667 145.833,46.3333 146.5,46C 145.167,45.6667 143.833,45.3333 142.5,45C 143.167,44.6667 143.833,44.3333 144.5,44C 143.167,43.6667 141.833,43.3333 140.5,43C 141.167,42.6667 141.833,42.3333 142.5,42C 141.167,41.6667 139.833,41.3333 138.5,41C 139.167,40.6667 139.833,40.3333 140.5,40C 139.167,39.6667 137.833,39.3333 136.5,39C 137.167,38.6667 137.833,38.3333 138.5,38C 137.167,37.6667 135.833,37.3333 134.5,37C 135.167,36.6667 135.833,36.3333 136.5,36C 135.167,35.6667 133.833,35.3333 132.5,35C 133.167,34.6667 133.833,34.3333 134.5,34C 133.167,33.6667 131.833,33.3333 130.5,33C 131.167,32.6667 131.833,32.3333 132.5,32C 131.167,31.6667 129.833,31.3333 128.5,31C 129.167,30.6667 129.833,30.3333 130.5,30C 129.167,29.6667 127.833,29.3333 126.5,29C 127.167,28.6667 127.833,28.3333 128.5,28C 127.167,27.6667 125.833,27.3333 124.5,27C 125.167,26.6667 125.833,26.3333 126.5,26C 125.167,25.6667 123.833,25.3333 122.5,25C 123.167,24.6667 123.833,24.3333 124.5,24C 123.167,23.6667 121.833,23.3333 120.5,23C 121.167,22.6667 121.833,22.3333 122.5,22C 121.167,21.6667 119.833,21.3333 118.5,21C 119.167,20.6667 119.833,20.3333 120.5,20C 119.167,19.6667 117.833,19.3333 116.5,19C 117.167,18.6667 117.833,18.3333 118.5,18C 117.167,17.6667 115.833,17.3333 114.5,17C 115.167,16.6667 115.833,16.3333 116.5,16C 115.167,15.6667 113.833,15.3333 112.5,15C 113.167,14.6667 113.833,14.3333 114.5,14C 113.167,13.6667 111.833,13.3333 110.5,13C 111.167,12.6667 111.833,12.3333 112.5,12C 111.167,11.6667 109.833,11.3333 108.5,11C 109.167,10.6667 109.833,10.3333 110.5,10C 109.167,9.66667 107.833,9.33333 106.5,9C 107.167,8.66667 107.833,8.33333 108.5,8C 107.167,7.66667 105.833,7.33333 104.5,7C 105.167,6.66667 105.833,6.33333 106.5,6C 104.942,5.78997 103.609,5.28997 102.5,4.5 Z"/></g>
<g><path style="opacity:1" fill="#d871bd" d="M 152.5,4.5 C 172.503,4.33338 192.503,4.50005 212.5,5C 215.167,5.66667 215.167,6.33333 212.5,7C 214.5,7.33333 216.5,7.66667 218.5,8C 215.833,8.66667 215.833,9.33333 218.5,10C 217.833,10.3333 217.167,10.6667 216.5,11C 218.774,11.4702 220.774,12.4702 222.5,14C 221.833,14.3333 221.167,14.6667 220.5,15C 222.5,15.3333 224.5,15.6667 226.5,16C 223.833,16.6667 223.833,17.3333 226.5,18C 225.833,18.3333 225.167,18.6667 224.5,19C 226.774,19.4702 228.774,20.4702 230.5,22C 229.833,22.3333 229.167,22.6667 228.5,23C 230.5,23.3333 232.5,23.6667 234.5,24C 231.833,24.6667 231.833,25.3333 234.5,26C 233.833,26.3333 233.167,26.6667 232.5,27C 234.774,27.4702 236.774,28.4702 238.5,30C 237.833,30.3333 237.167,30.6667 236.5,31C 238.5,31.3333 240.5,31.6667 242.5,32C 239.833,32.6667 239.833,33.3333 242.5,34C 241.833,34.3333 241.167,34.6667 240.5,35C 242.774,35.4702 244.774,36.4702 246.5,38C 245.833,38.3333 245.167,38.6667 244.5,39C 246.5,39.3333 248.5,39.6667 250.5,40C 247.833,40.6667 247.833,41.3333 250.5,42C 249.833,42.3333 249.167,42.6667 248.5,43C 250.774,43.4702 252.774,44.4702 254.5,46C 253.833,46.3333 253.167,46.6667 252.5,47C 254.5,47.3333 256.5,47.6667 258.5,48C 255.833,48.6667 255.833,49.3333 258.5,50C 257.833,50.3333 257.167,50.6667 256.5,51C 258.774,51.4702 260.774,52.4702 262.5,54C 261.833,54.3333 261.167,54.6667 260.5,55C 262.5,55.3333 264.5,55.6667 266.5,56C 263.833,56.6667 263.833,57.3333 266.5,58C 265.833,58.3333 265.167,58.6667 264.5,59C 266.774,59.4702 268.774,60.4702 270.5,62C 269.833,62.3333 269.167,62.6667 268.5,63C 270.5,63.3333 272.5,63.6667 274.5,64C 271.833,64.6667 271.833,65.3333 274.5,66C 273.833,66.3333 273.167,66.6667 272.5,67C 274.774,67.4702 276.774,68.4702 278.5,70C 277.833,70.3333 277.167,70.6667 276.5,71C 278.5,71.3333 280.5,71.6667 282.5,72C 279.833,72.6667 279.833,73.3333 282.5,74C 281.833,74.3333 281.167,74.6667 280.5,75C 282.774,75.4702 284.774,76.4702 286.5,78C 285.833,78.3333 285.167,78.6667 284.5,79C 286.5,79.3333 288.5,79.6667 290.5,80C 287.833,80.6667 287.833,81.3333 290.5,82C 289.833,82.3333 289.167,82.6667 288.5,83C 290.774,83.4702 292.774,84.4702 294.5,86C 293.833,86.3333 293.167,86.6667 292.5,87C 294.5,87.3333 296.5,87.6667 298.5,88C 295.833,88.6667 295.833,89.3333 298.5,90C 296.068,91.0875 296.402,91.5875 299.5,91.5C 299.5,111.5 299.5,131.5 299.5,151.5C 296.402,151.587 296.068,151.087 298.5,150C 295.833,149.333 295.833,148.667 298.5,148C 296.5,147.667 294.5,147.333 292.5,147C 293.167,146.667 293.833,146.333 294.5,146C 291.833,145.333 291.833,144.667 294.5,144C 292.5,143.667 290.5,143.333 288.5,143C 289.167,142.667 289.833,142.333 290.5,142C 287.833,141.333 287.833,140.667 290.5,140C 288.5,139.667 286.5,139.333 284.5,139C 285.167,138.667 285.833,138.333 286.5,138C 283.833,137.333 283.833,136.667 286.5,136C 284.5,135.667 282.5,135.333 280.5,135C 281.167,134.667 281.833,134.333 282.5,134C 279.833,133.333 279.833,132.667 282.5,132C 280.5,131.667 278.5,131.333 276.5,131C 277.167,130.667 277.833,130.333 278.5,130C 275.833,129.333 275.833,128.667 278.5,128C 276.5,127.667 274.5,127.333 272.5,127C 273.167,126.667 273.833,126.333 274.5,126C 271.833,125.333 271.833,124.667 274.5,124C 272.5,123.667 270.5,123.333 268.5,123C 269.167,122.667 269.833,122.333 270.5,122C 267.833,121.333 267.833,120.667 270.5,120C 268.5,119.667 266.5,119.333 264.5,119C 265.167,118.667 265.833,118.333 266.5,118C 263.833,117.333 263.833,116.667 266.5,116C 264.5,115.667 262.5,115.333 260.5,115C 261.167,114.667 261.833,114.333 262.5,114C 259.833,113.333 259.833,112.667 262.5,112C 260.5,111.667 258.5,111.333 256.5,111C 257.167,110.667 257.833,110.333 258.5,110C 255.833,109.333 255.833,108.667 258.5,108C 256.5,107.667 254.5,107.333 252.5,107C 253.167,106.667 253.833,106.333 254.5,106C 251.833,105.333 251.833,104.667 254.5,104C 252.5,103.667 250.5,103.333 248.5,103C 249.167,102.667 249.833,102.333 250.5,102C 247.833,101.333 247.833,100.667 250.5,100C 248.5,99.6667 246.5,99.3333 244.5,99C 245.167,98.6667 245.833,98.3333 246.5,98C 243.833,97.3333 243.833,96.6667 246.5,96C 244.5,95.6667 242.5,95.3333 240.5,95C 241.167,94.6667 241.833,94.3333 242.5,94C 239.833,93.3333 239.833,92.6667 242.5,92C 240.5,91.6667 238.5,91.3333 236.5,91C 237.167,90.6667 237.833,90.3333 238.5,90C 235.833,89.3333 235.833,88.6667 238.5,88C 236.5,87.6667 234.5,87.3333 232.5,87C 233.167,86.6667 233.833,86.3333 234.5,86C 231.833,85.3333 231.833,84.6667 234.5,84C 232.5,83.6667 230.5,83.3333 228.5,83C 229.167,82.6667 229.833,82.3333 230.5,82C 227.833,81.3333 227.833,80.6667 230.5,80C 228.5,79.6667 226.5,79.3333 224.5,79C 225.167,78.6667 225.833,78.3333 226.5,78C 223.833,77.3333 223.833,76.6667 226.5,76C 224.5,75.6667 222.5,75.3333 220.5,75C 221.167,74.6667 221.833,74.3333 222.5,74C 219.833,73.3333 219.833,72.6667 222.5,72C 220.5,71.6667 218.5,71.3333 216.5,71C 217.167,70.6667 217.833,70.3333 218.5,70C 215.833,69.3333 215.833,68.6667 218.5,68C 216.5,67.6667 214.5,67.3333 212.5,67C 213.167,66.6667 213.833,66.3333 214.5,66C 211.833,65.3333 211.833,64.6667 214.5,64C 212.5,63.6667 210.5,63.3333 208.5,63C 209.167,62.6667 209.833,62.3333 210.5,62C 207.833,61.3333 207.833,60.6667 210.5,60C 208.5,59.6667 206.5,59.3333 204.5,59C 205.167,58.6667 205.833,58.3333 206.5,58C 203.833,57.3333 203.833,56.6667 206.5,56C 204.5,55.6667 202.5,55.3333 200.5,55C 201.167,54.6667 201.833,54.3333 202.5,54C 199.833,53.3333 199.833,52.6667 202.5,52C 200.5,51.6667 198.5,51.3333 196.5,51C 197.167,50.6667 197.833,50.3333 198.5,50C 195.833,49.3333 195.833,48.6667 198.5,48C 196.5,47.6667 194.5,47.3333 192.5,47C 193.167,46.6667 193.833,46.3333 194.5,46C 191.833,45.3333 191.833,44.6667 194.5,44C 192.5,43.6667 190.5,43.3333 188.5,43C 189.167,42.6667 189.833,42.3333 190.5,42C 187.833,41.3333 187.833,40.6667 190.5,40C 188.5,39.6667 186.5,39.3333 184.5,39C 185.167,38.6667 185.833,38.3333 186.5,38C 183.833,37.3333 183.833,36.6667 186.5,36C 184.5,35.6667 182.5,35.3333 180.5,35C 181.167,34.6667 181.833,34.3333 182.5,34C 179.833,33.3333 179.833,32.6667 182.5,32C 180.5,31.6667 178.5,31.3333 176.5,31C 177.167,30.6667 177.833,30.3333 178.5,30C 175.833,29.3333 175.833,28.6667 178.5,28C 176.5,27.6667 174.5,27.3333 172.5,27C 173.167,26.6667 173.833,26.3333 174.5,26C 171.833,25.3333 171.833,24.6667 174.5,24C 172.5,23.6667 170.5,23.3333 168.5,23C 169.167,22.6667 169.833,22.3333 170.5,22C 167.833,21.3333 167.833,20.6667 170.5,20C 168.5,19.6667 166.5,19.3333 164.5,19C 165.167,18.6667 165.833,18.3333 166.5,18C 163.833,17.3333 163.833,16.6667 166.5,16C 164.5,15.6667 162.5,15.3333 160.5,15C 161.167,14.6667 161.833,14.3333 162.5,14C 159.833,13.3333 159.833,12.6667 162.5,12C 160.5,11.6667 158.5,11.3333 156.5,11C 157.167,10.6667 157.833,10.3333 158.5,10C 155.833,9.33333 155.833,8.66667 158.5,8C 156.5,7.66667 154.5,7.33333 152.5,7C 153.167,6.66667 153.833,6.33333 154.5,6C 153.584,5.72158 152.918,5.22158 152.5,4.5 Z"/></g>
<g><path style="opacity:1" fill="#dc7ac3" d="M 10.5,4.5 C 66.9975,3.50099 123.664,3.16766 180.5,3.5C 216.502,3.33335 252.502,3.50001 288.5,4C 293.387,6.32406 297.053,9.82406 299.5,14.5C 299.5,40.1667 299.5,65.8333 299.5,91.5C 296.402,91.5875 296.068,91.0875 298.5,90C 295.833,89.3333 295.833,88.6667 298.5,88C 296.5,87.6667 294.5,87.3333 292.5,87C 293.167,86.6667 293.833,86.3333 294.5,86C 292.774,84.4702 290.774,83.4702 288.5,83C 289.167,82.6667 289.833,82.3333 290.5,82C 287.833,81.3333 287.833,80.6667 290.5,80C 288.5,79.6667 286.5,79.3333 284.5,79C 285.167,78.6667 285.833,78.3333 286.5,78C 284.774,76.4702 282.774,75.4702 280.5,75C 281.167,74.6667 281.833,74.3333 282.5,74C 279.833,73.3333 279.833,72.6667 282.5,72C 280.5,71.6667 278.5,71.3333 276.5,71C 277.167,70.6667 277.833,70.3333 278.5,70C 276.774,68.4702 274.774,67.4702 272.5,67C 273.167,66.6667 273.833,66.3333 274.5,66C 271.833,65.3333 271.833,64.6667 274.5,64C 272.5,63.6667 270.5,63.3333 268.5,63C 269.167,62.6667 269.833,62.3333 270.5,62C 268.774,60.4702 266.774,59.4702 264.5,59C 265.167,58.6667 265.833,58.3333 266.5,58C 263.833,57.3333 263.833,56.6667 266.5,56C 264.5,55.6667 262.5,55.3333 260.5,55C 261.167,54.6667 261.833,54.3333 262.5,54C 260.774,52.4702 258.774,51.4702 256.5,51C 257.167,50.6667 257.833,50.3333 258.5,50C 255.833,49.3333 255.833,48.6667 258.5,48C 256.5,47.6667 254.5,47.3333 252.5,47C 253.167,46.6667 253.833,46.3333 254.5,46C 252.774,44.4702 250.774,43.4702 248.5,43C 249.167,42.6667 249.833,42.3333 250.5,42C 247.833,41.3333 247.833,40.6667 250.5,40C 248.5,39.6667 246.5,39.3333 244.5,39C 245.167,38.6667 245.833,38.3333 246.5,38C 244.774,36.4702 242.774,35.4702 240.5,35C 241.167,34.6667 241.833,34.3333 242.5,34C 239.833,33.3333 239.833,32.6667 242.5,32C 240.5,31.6667 238.5,31.3333 236.5,31C 237.167,30.6667 237.833,30.3333 238.5,30C 236.774,28.4702 234.774,27.4702 232.5,27C 233.167,26.6667 233.833,26.3333 234.5,26C 231.833,25.3333 231.833,24.6667 234.5,24C 232.5,23.6667 230.5,23.3333 228.5,23C 229.167,22.6667 229.833,22.3333 230.5,22C 228.774,20.4702 226.774,19.4702 224.5,19C 225.167,18.6667 225.833,18.3333 226.5,18C 223.833,17.3333 223.833,16.6667 226.5,16C 224.5,15.6667 222.5,15.3333 220.5,15C 221.167,14.6667 221.833,14.3333 222.5,14C 220.774,12.4702 218.774,11.4702 216.5,11C 217.167,10.6667 217.833,10.3333 218.5,10C 215.833,9.33333 215.833,8.66667 218.5,8C 216.5,7.66667 214.5,7.33333 212.5,7C 215.167,6.33333 215.167,5.66667 212.5,5C 192.503,4.50005 172.503,4.33338 152.5,4.5C 135.833,4.5 119.167,4.5 102.5,4.5C 71.8333,4.5 41.1667,4.5 10.5,4.5 Z"/></g>
<g><path style="opacity:1" fill="#d161b4" d="M 3.5,8.5 C 9.03127,9.36826 9.3646,10.2016 4.5,11C 6.5,11.3333 8.5,11.6667 10.5,12C 9.83333,12.3333 9.16667,12.6667 8.5,13C 13.8333,13.6667 13.8333,14.3333 8.5,15C 10.5,15.3333 12.5,15.6667 14.5,16C 13.8333,16.3333 13.1667,16.6667 12.5,17C 17.8333,17.6667 17.8333,18.3333 12.5,19C 14.5,19.3333 16.5,19.6667 18.5,20C 17.8333,20.3333 17.1667,20.6667 16.5,21C 21.8333,21.6667 21.8333,22.3333 16.5,23C 18.5,23.3333 20.5,23.6667 22.5,24C 21.8333,24.3333 21.1667,24.6667 20.5,25C 25.8333,25.6667 25.8333,26.3333 20.5,27C 22.5,27.3333 24.5,27.6667 26.5,28C 25.8333,28.3333 25.1667,28.6667 24.5,29C 29.8333,29.6667 29.8333,30.3333 24.5,31C 26.5,31.3333 28.5,31.6667 30.5,32C 29.8333,32.3333 29.1667,32.6667 28.5,33C 33.8333,33.6667 33.8333,34.3333 28.5,35C 30.5,35.3333 32.5,35.6667 34.5,36C 33.8333,36.3333 33.1667,36.6667 32.5,37C 37.8333,37.6667 37.8333,38.3333 32.5,39C 34.5,39.3333 36.5,39.6667 38.5,40C 37.8333,40.3333 37.1667,40.6667 36.5,41C 41.8333,41.6667 41.8333,42.3333 36.5,43C 38.5,43.3333 40.5,43.6667 42.5,44C 41.8333,44.3333 41.1667,44.6667 40.5,45C 45.8333,45.6667 45.8333,46.3333 40.5,47C 42.5,47.3333 44.5,47.6667 46.5,48C 45.8333,48.3333 45.1667,48.6667 44.5,49C 49.8333,49.6667 49.8333,50.3333 44.5,51C 46.5,51.3333 48.5,51.6667 50.5,52C 49.8333,52.3333 49.1667,52.6667 48.5,53C 53.8333,53.6667 53.8333,54.3333 48.5,55C 50.5,55.3333 52.5,55.6667 54.5,56C 53.8333,56.3333 53.1667,56.6667 52.5,57C 57.8333,57.6667 57.8333,58.3333 52.5,59C 54.5,59.3333 56.5,59.6667 58.5,60C 57.8333,60.3333 57.1667,60.6667 56.5,61C 61.8333,61.6667 61.8333,62.3333 56.5,63C 58.5,63.3333 60.5,63.6667 62.5,64C 61.8333,64.3333 61.1667,64.6667 60.5,65C 65.8333,65.6667 65.8333,66.3333 60.5,67C 62.5,67.3333 64.5,67.6667 66.5,68C 65.8333,68.3333 65.1667,68.6667 64.5,69C 69.8333,69.6667 69.8333,70.3333 64.5,71C 66.5,71.3333 68.5,71.6667 70.5,72C 69.8333,72.3333 69.1667,72.6667 68.5,73C 73.8333,73.6667 73.8333,74.3333 68.5,75C 70.5,75.3333 72.5,75.6667 74.5,76C 73.8333,76.3333 73.1667,76.6667 72.5,77C 77.8333,77.6667 77.8333,78.3333 72.5,79C 74.5,79.3333 76.5,79.6667 78.5,80C 77.8333,80.3333 77.1667,80.6667 76.5,81C 81.8333,81.6667 81.8333,82.3333 76.5,83C 78.5,83.3333 80.5,83.6667 82.5,84C 81.8333,84.3333 81.1667,84.6667 80.5,85C 82.0581,85.21 83.3915,85.71 84.5,86.5C 60.5,110.833 36.5,135.167 12.5,159.5C 8.16667,163.5 3.83333,167.5 -0.5,171.5C -0.5,119.167 -0.5,66.8333 -0.5,14.5C 0.377058,12.2722 1.71039,10.2722 3.5,8.5 Z"/></g>
<g><path style="opacity:1" fill="#f1f1f1" d="M 158.5,74.5 C 158.333,88.1707 158.5,101.837 159,115.5C 160.076,118.079 161.909,119.746 164.5,120.5C 177.99,121.496 191.656,121.829 205.5,121.5C 205.5,153.833 205.5,186.167 205.5,218.5C 205.5,219.167 205.5,219.833 205.5,220.5C 203.833,221.5 202.5,222.833 201.5,224.5C 166.832,224.667 132.165,224.5 97.5,224C 96.2949,222.624 94.9616,221.458 93.5,220.5C 93.5,173.167 93.5,125.833 93.5,78.5C 94.2899,77.2058 95.2899,76.0391 96.5,75C 117.164,74.5 137.831,74.3334 158.5,74.5 Z"/></g>
<g><path style="opacity:1" fill="#f3f2f3" d="M 168.5,74.5 C 170.199,74.3398 171.866,74.5065 173.5,75C 183.363,85.1969 193.529,95.0302 204,104.5C 205.202,106.677 205.702,109.011 205.5,111.5C 193.167,111.5 180.833,111.5 168.5,111.5C 168.5,99.1667 168.5,86.8333 168.5,74.5 Z"/></g>
<g><path style="opacity:1" fill="#a44c8d" d="M 93.5,78.5 C 93.5,125.833 93.5,173.167 93.5,220.5C 92.659,224.575 93.9924,227.575 97.5,229.5C 129.996,230.498 162.662,230.832 195.5,230.5C 178.5,248.167 161.167,265.5 143.5,282.5C 141.254,281.79 138.92,281.29 136.5,281C 138.5,280.667 140.5,280.333 142.5,280C 139.167,279.667 135.833,279.333 132.5,279C 140.5,278.333 140.5,277.667 132.5,277C 134.5,276.667 136.5,276.333 138.5,276C 135.167,275.667 131.833,275.333 128.5,275C 136.5,274.333 136.5,273.667 128.5,273C 130.5,272.667 132.5,272.333 134.5,272C 131.167,271.667 127.833,271.333 124.5,271C 132.5,270.333 132.5,269.667 124.5,269C 126.5,268.667 128.5,268.333 130.5,268C 127.167,267.667 123.833,267.333 120.5,267C 128.5,266.333 128.5,265.667 120.5,265C 122.5,264.667 124.5,264.333 126.5,264C 123.167,263.667 119.833,263.333 116.5,263C 124.5,262.333 124.5,261.667 116.5,261C 118.5,260.667 120.5,260.333 122.5,260C 119.167,259.667 115.833,259.333 112.5,259C 120.5,258.333 120.5,257.667 112.5,257C 114.5,256.667 116.5,256.333 118.5,256C 115.167,255.667 111.833,255.333 108.5,255C 116.5,254.333 116.5,253.667 108.5,253C 110.5,252.667 112.5,252.333 114.5,252C 111.167,251.667 107.833,251.333 104.5,251C 112.5,250.333 112.5,249.667 104.5,249C 106.5,248.667 108.5,248.333 110.5,248C 107.167,247.667 103.833,247.333 100.5,247C 108.5,246.333 108.5,245.667 100.5,245C 102.5,244.667 104.5,244.333 106.5,244C 103.167,243.667 99.8333,243.333 96.5,243C 104.5,242.333 104.5,241.667 96.5,241C 98.5,240.667 100.5,240.333 102.5,240C 99.1667,239.667 95.8333,239.333 92.5,239C 100.5,238.333 100.5,237.667 92.5,237C 94.5,236.667 96.5,236.333 98.5,236C 95.1667,235.667 91.8333,235.333 88.5,235C 96.5,234.333 96.5,233.667 88.5,233C 90.5,232.667 92.5,232.333 94.5,232C 91.1667,231.667 87.8333,231.333 84.5,231C 92.5,230.333 92.5,229.667 84.5,229C 86.5,228.667 88.5,228.333 90.5,228C 87.1667,227.667 83.8333,227.333 80.5,227C 88.5,226.333 88.5,225.667 80.5,225C 82.5,224.667 84.5,224.333 86.5,224C 83.1667,223.667 79.8333,223.333 76.5,223C 84.5,222.333 84.5,221.667 76.5,221C 78.5,220.667 80.5,220.333 82.5,220C 79.1667,219.667 75.8333,219.333 72.5,219C 80.5,218.333 80.5,217.667 72.5,217C 74.5,216.667 76.5,216.333 78.5,216C 75.1667,215.667 71.8333,215.333 68.5,215C 76.5,214.333 76.5,213.667 68.5,213C 70.5,212.667 72.5,212.333 74.5,212C 71.1667,211.667 67.8333,211.333 64.5,211C 72.5,210.333 72.5,209.667 64.5,209C 66.5,208.667 68.5,208.333 70.5,208C 67.1667,207.667 63.8333,207.333 60.5,207C 68.5,206.333 68.5,205.667 60.5,205C 62.5,204.667 64.5,204.333 66.5,204C 63.1667,203.667 59.8333,203.333 56.5,203C 64.5,202.333 64.5,201.667 56.5,201C 58.5,200.667 60.5,200.333 62.5,200C 59.1667,199.667 55.8333,199.333 52.5,199C 60.5,198.333 60.5,197.667 52.5,197C 54.5,196.667 56.5,196.333 58.5,196C 55.1667,195.667 51.8333,195.333 48.5,195C 56.5,194.333 56.5,193.667 48.5,193C 50.5,192.667 52.5,192.333 54.5,192C 51.1667,191.667 47.8333,191.333 44.5,191C 52.5,190.333 52.5,189.667 44.5,189C 46.5,188.667 48.5,188.333 50.5,188C 47.1667,187.667 43.8333,187.333 40.5,187C 48.5,186.333 48.5,185.667 40.5,185C 42.5,184.667 44.5,184.333 46.5,184C 43.1667,183.667 39.8333,183.333 36.5,183C 44.5,182.333 44.5,181.667 36.5,181C 38.5,180.667 40.5,180.333 42.5,180C 39.1667,179.667 35.8333,179.333 32.5,179C 40.5,178.333 40.5,177.667 32.5,177C 34.5,176.667 36.5,176.333 38.5,176C 35.1667,175.667 31.8333,175.333 28.5,175C 36.5,174.333 36.5,173.667 28.5,173C 30.5,172.667 32.5,172.333 34.5,172C 31.1667,171.667 27.8333,171.333 24.5,171C 32.5,170.333 32.5,169.667 24.5,169C 26.5,168.667 28.5,168.333 30.5,168C 27.1667,167.667 23.8333,167.333 20.5,167C 28.5,166.333 28.5,165.667 20.5,165C 22.5,164.667 24.5,164.333 26.5,164C 23.1667,163.667 19.8333,163.333 16.5,163C 24.5,162.333 24.5,161.667 16.5,161C 18.5,160.667 20.5,160.333 22.5,160C 19.1832,159.502 15.8499,159.335 12.5,159.5C 36.5,135.167 60.5,110.833 84.5,86.5C 87.5,83.8333 90.5,81.1667 93.5,78.5 Z"/></g>
<g><path style="opacity:1" fill="#aa5b95" d="M 158.5,74.5 C 159.317,76.9686 159.817,79.6353 160,82.5C 162.703,79.6286 165.536,76.9619 168.5,74.5C 168.5,86.8333 168.5,99.1667 168.5,111.5C 168.5,113.5 168.5,115.5 168.5,117.5C 178.5,117.5 188.5,117.5 198.5,117.5C 197.833,118.5 197.167,119.5 196.5,120.5C 185.833,120.5 175.167,120.5 164.5,120.5C 161.909,119.746 160.076,118.079 159,115.5C 158.5,101.837 158.333,88.1707 158.5,74.5 Z"/></g>
<g><path style="opacity:1" fill="#734366" d="M 139.5,101.5 C 139.5,100.5 139.5,99.5 139.5,98.5C 130.5,98.5 121.5,98.5 112.5,98.5C 112.5,96.5 112.5,94.5 112.5,92.5C 121.506,92.3336 130.506,92.5002 139.5,93C 140.817,95.9365 140.817,98.7699 139.5,101.5 Z"/></g>
<g><path style="opacity:1" fill="#a85b93" d="M 112.5,98.5 C 121.5,98.5 130.5,98.5 139.5,98.5C 139.5,99.5 139.5,100.5 139.5,101.5C 130.682,102.493 121.682,102.827 112.5,102.5C 112.5,101.167 112.5,99.8333 112.5,98.5 Z"/></g>
<g><path style="opacity:1" fill="#6a375d" d="M 139.5,112.5 C 139.5,114.167 139.5,115.833 139.5,117.5C 130.5,117.5 121.5,117.5 112.5,117.5C 112.5,115.5 112.5,113.5 112.5,111.5C 121.682,111.173 130.682,111.507 139.5,112.5 Z"/></g>
<g><path style="opacity:1" fill="#6f3c61" d="M 168.5,111.5 C 180.833,111.5 193.167,111.5 205.5,111.5C 205.5,113.5 205.5,115.5 205.5,117.5C 203.167,117.5 200.833,117.5 198.5,117.5C 188.5,117.5 178.5,117.5 168.5,117.5C 168.5,115.5 168.5,113.5 168.5,111.5 Z"/></g>
<g><path style="opacity:1" fill="#a4538f" d="M 139.5,112.5 C 140.814,114.895 140.814,117.395 139.5,120C 130.506,120.5 121.506,120.666 112.5,120.5C 112.5,119.5 112.5,118.5 112.5,117.5C 121.5,117.5 130.5,117.5 139.5,117.5C 139.5,115.833 139.5,114.167 139.5,112.5 Z"/></g>
<g><path style="opacity:1" fill="#d368b7" d="M 299.5,199.5 C 299.5,222.167 299.5,244.833 299.5,267.5C 298.621,266.424 296.954,265.59 294.5,265C 295.833,264.667 297.167,264.333 298.5,264C 295.833,263.667 293.167,263.333 290.5,263C 295.833,262.333 295.833,261.667 290.5,261C 291.167,260.667 291.833,260.333 292.5,260C 290.5,259 288.5,258 286.5,257C 287.833,256.667 289.167,256.333 290.5,256C 287.833,255.667 285.167,255.333 282.5,255C 287.833,254.333 287.833,253.667 282.5,253C 283.167,252.667 283.833,252.333 284.5,252C 282.5,251 280.5,250 278.5,249C 279.833,248.667 281.167,248.333 282.5,248C 279.833,247.667 277.167,247.333 274.5,247C 279.833,246.333 279.833,245.667 274.5,245C 275.167,244.667 275.833,244.333 276.5,244C 274.5,243 272.5,242 270.5,241C 271.833,240.667 273.167,240.333 274.5,240C 271.833,239.667 269.167,239.333 266.5,239C 271.833,238.333 271.833,237.667 266.5,237C 267.167,236.667 267.833,236.333 268.5,236C 266.5,235 264.5,234 262.5,233C 263.833,232.667 265.167,232.333 266.5,232C 263.833,231.667 261.167,231.333 258.5,231C 263.833,230.333 263.833,229.667 258.5,229C 259.167,228.667 259.833,228.333 260.5,228C 258.5,227 256.5,226 254.5,225C 255.833,224.667 257.167,224.333 258.5,224C 255.833,223.667 253.167,223.333 250.5,223C 255.833,222.333 255.833,221.667 250.5,221C 251.167,220.667 251.833,220.333 252.5,220C 250.5,219 248.5,218 246.5,217C 247.833,216.667 249.167,216.333 250.5,216C 247.833,215.667 245.167,215.333 242.5,215C 247.833,214.333 247.833,213.667 242.5,213C 243.167,212.667 243.833,212.333 244.5,212C 242.5,211 240.5,210 238.5,209C 239.833,208.667 241.167,208.333 242.5,208C 239.833,207.667 237.167,207.333 234.5,207C 239.833,206.333 239.833,205.667 234.5,205C 235.167,204.667 235.833,204.333 236.5,204C 234.5,203 232.5,202 230.5,201C 231.833,200.667 233.167,200.333 234.5,200C 231.833,199.667 229.167,199.333 226.5,199C 231.833,198.333 231.833,197.667 226.5,197C 227.167,196.667 227.833,196.333 228.5,196C 226.5,195 224.5,194 222.5,193C 223.833,192.667 225.167,192.333 226.5,192C 223.833,191.667 221.167,191.333 218.5,191C 223.833,190.333 223.833,189.667 218.5,189C 219.167,188.667 219.833,188.333 220.5,188C 218.5,187 216.5,186 214.5,185C 215.833,184.667 217.167,184.333 218.5,184C 215.833,183.667 213.167,183.333 210.5,183C 215.833,182.333 215.833,181.667 210.5,181C 211.167,180.667 211.833,180.333 212.5,180C 211.167,179.667 209.833,179.333 208.5,179C 209.167,178.667 209.833,178.333 210.5,178C 209.207,177.51 207.873,177.343 206.5,177.5C 206.5,158.5 206.5,139.5 206.5,120.5C 203.167,120.5 199.833,120.5 196.5,120.5C 197.167,119.5 197.833,118.5 198.5,117.5C 200.833,117.5 203.167,117.5 205.5,117.5C 205.5,115.5 205.5,113.5 205.5,111.5C 206.261,110.609 207.261,109.942 208.5,109.5C 211.063,109.737 211.063,110.237 208.5,111C 209.833,111.333 211.167,111.667 212.5,112C 211.833,112.333 211.167,112.667 210.5,113C 211.833,113.333 213.167,113.667 214.5,114C 213.833,114.333 213.167,114.667 212.5,115C 213.833,115.333 215.167,115.667 216.5,116C 215.833,116.333 215.167,116.667 214.5,117C 215.833,117.333 217.167,117.667 218.5,118C 217.833,118.333 217.167,118.667 216.5,119C 217.833,119.333 219.167,119.667 220.5,120C 219.833,120.333 219.167,120.667 218.5,121C 219.833,121.333 221.167,121.667 222.5,122C 221.833,122.333 221.167,122.667 220.5,123C 221.833,123.333 223.167,123.667 224.5,124C 223.833,124.333 223.167,124.667 222.5,125C 223.833,125.333 225.167,125.667 226.5,126C 225.833,126.333 225.167,126.667 224.5,127C 225.833,127.333 227.167,127.667 228.5,128C 227.833,128.333 227.167,128.667 226.5,129C 227.833,129.333 229.167,129.667 230.5,130C 229.833,130.333 229.167,130.667 228.5,131C 229.833,131.333 231.167,131.667 232.5,132C 231.833,132.333 231.167,132.667 230.5,133C 231.833,133.333 233.167,133.667 234.5,134C 233.833,134.333 233.167,134.667 232.5,135C 233.833,135.333 235.167,135.667 236.5,136C 235.833,136.333 235.167,136.667 234.5,137C 235.833,137.333 237.167,137.667 238.5,138C 237.833,138.333 237.167,138.667 236.5,139C 237.833,139.333 239.167,139.667 240.5,140C 239.833,140.333 239.167,140.667 238.5,141C 239.833,141.333 241.167,141.667 242.5,142C 241.833,142.333 241.167,142.667 240.5,143C 241.833,143.333 243.167,143.667 244.5,144C 243.833,144.333 243.167,144.667 242.5,145C 243.833,145.333 245.167,145.667 246.5,146C 245.833,146.333 245.167,146.667 244.5,147C 245.833,147.333 247.167,147.667 248.5,148C 247.833,148.333 247.167,148.667 246.5,149C 247.833,149.333 249.167,149.667 250.5,150C 249.833,150.333 249.167,150.667 248.5,151C 249.833,151.333 251.167,151.667 252.5,152C 251.833,152.333 251.167,152.667 250.5,153C 251.833,153.333 253.167,153.667 254.5,154C 253.833,154.333 253.167,154.667 252.5,155C 253.833,155.333 255.167,155.667 256.5,156C 255.833,156.333 255.167,156.667 254.5,157C 255.833,157.333 257.167,157.667 258.5,158C 257.833,158.333 257.167,158.667 256.5,159C 257.833,159.333 259.167,159.667 260.5,160C 259.833,160.333 259.167,160.667 258.5,161C 259.833,161.333 261.167,161.667 262.5,162C 261.833,162.333 261.167,162.667 260.5,163C 261.833,163.333 263.167,163.667 264.5,164C 263.833,164.333 263.167,164.667 262.5,165C 263.833,165.333 265.167,165.667 266.5,166C 265.833,166.333 265.167,166.667 264.5,167C 265.833,167.333 267.167,167.667 268.5,168C 267.833,168.333 267.167,168.667 266.5,169C 267.833,169.333 269.167,169.667 270.5,170C 269.833,170.333 269.167,170.667 268.5,171C 269.833,171.333 271.167,171.667 272.5,172C 271.833,172.333 271.167,172.667 270.5,173C 271.833,173.333 273.167,173.667 274.5,174C 273.833,174.333 273.167,174.667 272.5,175C 273.833,175.333 275.167,175.667 276.5,176C 275.833,176.333 275.167,176.667 274.5,177C 275.833,177.333 277.167,177.667 278.5,178C 277.833,178.333 277.167,178.667 276.5,179C 277.833,179.333 279.167,179.667 280.5,180C 279.833,180.333 279.167,180.667 278.5,181C 279.833,181.333 281.167,181.667 282.5,182C 281.833,182.333 281.167,182.667 280.5,183C 281.833,183.333 283.167,183.667 284.5,184C 283.833,184.333 283.167,184.667 282.5,185C 283.833,185.333 285.167,185.667 286.5,186C 285.833,186.333 285.167,186.667 284.5,187C 285.833,187.333 287.167,187.667 288.5,188C 287.833,188.333 287.167,188.667 286.5,189C 287.833,189.333 289.167,189.667 290.5,190C 289.833,190.333 289.167,190.667 288.5,191C 289.833,191.333 291.167,191.667 292.5,192C 291.833,192.333 291.167,192.667 290.5,193C 291.833,193.333 293.167,193.667 294.5,194C 293.833,194.333 293.167,194.667 292.5,195C 293.833,195.333 295.167,195.667 296.5,196C 295.833,196.333 295.167,196.667 294.5,197C 296.954,197.59 298.621,198.424 299.5,199.5 Z"/></g>
<g><path style="opacity:1" fill="#6c3a5e" d="M 186.5,142.5 C 186.66,144.199 186.494,145.866 186,147.5C 185.5,147 185,146.5 184.5,146C 161.167,145.333 137.833,145.333 114.5,146C 113.956,146.717 113.289,147.217 112.5,147.5C 112.055,144.635 112.722,142.135 114.5,140C 137.833,139.333 161.167,139.333 184.5,140C 185.381,140.708 186.047,141.542 186.5,142.5 Z"/></g>
<g><path style="opacity:1" fill="#a5528f" d="M 186.5,142.5 C 187.659,152.992 187.825,163.659 187,174.5C 186.167,175.333 185.333,176.167 184.5,177C 161.167,177.667 137.833,177.667 114.5,177C 114,176.5 113.5,176 113,175.5C 112.5,166.173 112.334,156.839 112.5,147.5C 113.289,147.217 113.956,146.717 114.5,146C 137.833,145.333 161.167,145.333 184.5,146C 185,146.5 185.5,147 186,147.5C 186.494,145.866 186.66,144.199 186.5,142.5 Z"/></g>
<g><path style="opacity:1" fill="#f0eff0" d="M 177.5,168.5 C 158.833,168.5 140.167,168.5 121.5,168.5C 121.5,162.167 121.5,155.833 121.5,149.5C 140.167,149.5 158.833,149.5 177.5,149.5C 177.5,155.833 177.5,162.167 177.5,168.5 Z"/></g>
<g><path style="opacity:1" fill="#a54a8d" d="M 12.5,159.5 C 15.8499,159.335 19.1832,159.502 22.5,160C 20.5,160.333 18.5,160.667 16.5,161C 24.5,161.667 24.5,162.333 16.5,163C 19.8333,163.333 23.1667,163.667 26.5,164C 24.5,164.333 22.5,164.667 20.5,165C 28.5,165.667 28.5,166.333 20.5,167C 23.8333,167.333 27.1667,167.667 30.5,168C 28.5,168.333 26.5,168.667 24.5,169C 32.5,169.667 32.5,170.333 24.5,171C 27.8333,171.333 31.1667,171.667 34.5,172C 32.5,172.333 30.5,172.667 28.5,173C 36.5,173.667 36.5,174.333 28.5,175C 31.8333,175.333 35.1667,175.667 38.5,176C 36.5,176.333 34.5,176.667 32.5,177C 40.5,177.667 40.5,178.333 32.5,179C 35.8333,179.333 39.1667,179.667 42.5,180C 40.5,180.333 38.5,180.667 36.5,181C 44.5,181.667 44.5,182.333 36.5,183C 39.8333,183.333 43.1667,183.667 46.5,184C 44.5,184.333 42.5,184.667 40.5,185C 48.5,185.667 48.5,186.333 40.5,187C 43.8333,187.333 47.1667,187.667 50.5,188C 48.5,188.333 46.5,188.667 44.5,189C 52.5,189.667 52.5,190.333 44.5,191C 47.8333,191.333 51.1667,191.667 54.5,192C 52.5,192.333 50.5,192.667 48.5,193C 56.5,193.667 56.5,194.333 48.5,195C 51.8333,195.333 55.1667,195.667 58.5,196C 56.5,196.333 54.5,196.667 52.5,197C 60.5,197.667 60.5,198.333 52.5,199C 55.8333,199.333 59.1667,199.667 62.5,200C 60.5,200.333 58.5,200.667 56.5,201C 64.5,201.667 64.5,202.333 56.5,203C 59.8333,203.333 63.1667,203.667 66.5,204C 64.5,204.333 62.5,204.667 60.5,205C 68.5,205.667 68.5,206.333 60.5,207C 63.8333,207.333 67.1667,207.667 70.5,208C 68.5,208.333 66.5,208.667 64.5,209C 72.5,209.667 72.5,210.333 64.5,211C 67.8333,211.333 71.1667,211.667 74.5,212C 72.5,212.333 70.5,212.667 68.5,213C 76.5,213.667 76.5,214.333 68.5,215C 71.8333,215.333 75.1667,215.667 78.5,216C 76.5,216.333 74.5,216.667 72.5,217C 80.5,217.667 80.5,218.333 72.5,219C 75.8333,219.333 79.1667,219.667 82.5,220C 80.5,220.333 78.5,220.667 76.5,221C 84.5,221.667 84.5,222.333 76.5,223C 79.8333,223.333 83.1667,223.667 86.5,224C 84.5,224.333 82.5,224.667 80.5,225C 88.5,225.667 88.5,226.333 80.5,227C 83.8333,227.333 87.1667,227.667 90.5,228C 88.5,228.333 86.5,228.667 84.5,229C 92.5,229.667 92.5,230.333 84.5,231C 87.8333,231.333 91.1667,231.667 94.5,232C 92.5,232.333 90.5,232.667 88.5,233C 96.5,233.667 96.5,234.333 88.5,235C 91.8333,235.333 95.1667,235.667 98.5,236C 96.5,236.333 94.5,236.667 92.5,237C 100.5,237.667 100.5,238.333 92.5,239C 95.8333,239.333 99.1667,239.667 102.5,240C 100.5,240.333 98.5,240.667 96.5,241C 104.5,241.667 104.5,242.333 96.5,243C 99.8333,243.333 103.167,243.667 106.5,244C 104.5,244.333 102.5,244.667 100.5,245C 108.5,245.667 108.5,246.333 100.5,247C 103.833,247.333 107.167,247.667 110.5,248C 108.5,248.333 106.5,248.667 104.5,249C 112.5,249.667 112.5,250.333 104.5,251C 107.833,251.333 111.167,251.667 114.5,252C 112.5,252.333 110.5,252.667 108.5,253C 116.5,253.667 116.5,254.333 108.5,255C 111.833,255.333 115.167,255.667 118.5,256C 116.5,256.333 114.5,256.667 112.5,257C 120.5,257.667 120.5,258.333 112.5,259C 115.833,259.333 119.167,259.667 122.5,260C 120.5,260.333 118.5,260.667 116.5,261C 124.5,261.667 124.5,262.333 116.5,263C 119.833,263.333 123.167,263.667 126.5,264C 124.5,264.333 122.5,264.667 120.5,265C 128.5,265.667 128.5,266.333 120.5,267C 123.833,267.333 127.167,267.667 130.5,268C 128.5,268.333 126.5,268.667 124.5,269C 132.5,269.667 132.5,270.333 124.5,271C 127.833,271.333 131.167,271.667 134.5,272C 132.5,272.333 130.5,272.667 128.5,273C 136.5,273.667 136.5,274.333 128.5,275C 131.833,275.333 135.167,275.667 138.5,276C 136.5,276.333 134.5,276.667 132.5,277C 140.5,277.667 140.5,278.333 132.5,279C 135.833,279.333 139.167,279.667 142.5,280C 140.5,280.333 138.5,280.667 136.5,281C 138.92,281.29 141.254,281.79 143.5,282.5C 140.037,286.464 136.37,290.298 132.5,294C 184.499,294.5 236.499,294.667 288.5,294.5C 196,295.322 103.333,295.322 10.5,294.5C 4.91003,293.242 1.24337,289.908 -0.5,284.5C -0.5,246.833 -0.5,209.167 -0.5,171.5C 3.83333,167.5 8.16667,163.5 12.5,159.5 Z"/></g>
<g><path style="opacity:1" fill="#6a355b" d="M 121.5,168.5 C 140.167,168.5 158.833,168.5 177.5,168.5C 177.5,170.5 177.5,172.5 177.5,174.5C 158.833,174.5 140.167,174.5 121.5,174.5C 121.5,172.5 121.5,170.5 121.5,168.5 Z"/></g>
<g><path style="opacity:1" fill="#c798ba" d="M 164.5,120.5 C 175.167,120.5 185.833,120.5 196.5,120.5C 199.833,120.5 203.167,120.5 206.5,120.5C 206.5,139.5 206.5,158.5 206.5,177.5C 206.5,188.833 206.5,200.167 206.5,211.5C 206.802,214.059 206.468,216.393 205.5,218.5C 205.5,186.167 205.5,153.833 205.5,121.5C 191.656,121.829 177.99,121.496 164.5,120.5 Z"/></g>
<g><path style="opacity:1" fill="#d264b5" d="M 206.5,177.5 C 207.873,177.343 209.207,177.51 210.5,178C 209.833,178.333 209.167,178.667 208.5,179C 209.833,179.333 211.167,179.667 212.5,180C 211.833,180.333 211.167,180.667 210.5,181C 215.833,181.667 215.833,182.333 210.5,183C 213.167,183.333 215.833,183.667 218.5,184C 217.167,184.333 215.833,184.667 214.5,185C 216.5,186 218.5,187 220.5,188C 219.833,188.333 219.167,188.667 218.5,189C 223.833,189.667 223.833,190.333 218.5,191C 221.167,191.333 223.833,191.667 226.5,192C 225.167,192.333 223.833,192.667 222.5,193C 224.5,194 226.5,195 228.5,196C 227.833,196.333 227.167,196.667 226.5,197C 231.833,197.667 231.833,198.333 226.5,199C 229.167,199.333 231.833,199.667 234.5,200C 233.167,200.333 231.833,200.667 230.5,201C 232.5,202 234.5,203 236.5,204C 235.833,204.333 235.167,204.667 234.5,205C 239.833,205.667 239.833,206.333 234.5,207C 237.167,207.333 239.833,207.667 242.5,208C 241.167,208.333 239.833,208.667 238.5,209C 240.5,210 242.5,211 244.5,212C 243.833,212.333 243.167,212.667 242.5,213C 247.833,213.667 247.833,214.333 242.5,215C 245.167,215.333 247.833,215.667 250.5,216C 249.167,216.333 247.833,216.667 246.5,217C 248.5,218 250.5,219 252.5,220C 251.833,220.333 251.167,220.667 250.5,221C 255.833,221.667 255.833,222.333 250.5,223C 253.167,223.333 255.833,223.667 258.5,224C 257.167,224.333 255.833,224.667 254.5,225C 256.5,226 258.5,227 260.5,228C 259.833,228.333 259.167,228.667 258.5,229C 263.833,229.667 263.833,230.333 258.5,231C 261.167,231.333 263.833,231.667 266.5,232C 265.167,232.333 263.833,232.667 262.5,233C 264.5,234 266.5,235 268.5,236C 267.833,236.333 267.167,236.667 266.5,237C 271.833,237.667 271.833,238.333 266.5,239C 269.167,239.333 271.833,239.667 274.5,240C 273.167,240.333 271.833,240.667 270.5,241C 272.5,242 274.5,243 276.5,244C 275.833,244.333 275.167,244.667 274.5,245C 279.833,245.667 279.833,246.333 274.5,247C 277.167,247.333 279.833,247.667 282.5,248C 281.167,248.333 279.833,248.667 278.5,249C 280.5,250 282.5,251 284.5,252C 283.833,252.333 283.167,252.667 282.5,253C 287.833,253.667 287.833,254.333 282.5,255C 285.167,255.333 287.833,255.667 290.5,256C 289.167,256.333 287.833,256.667 286.5,257C 288.5,258 290.5,259 292.5,260C 291.833,260.333 291.167,260.667 290.5,261C 295.833,261.667 295.833,262.333 290.5,263C 293.167,263.333 295.833,263.667 298.5,264C 297.167,264.333 295.833,264.667 294.5,265C 296.954,265.59 298.621,266.424 299.5,267.5C 299.5,273.167 299.5,278.833 299.5,284.5C 298.085,289.579 294.752,292.579 289.5,293.5C 289.062,293.565 288.728,293.399 288.5,293C 289.167,292.667 289.833,292.333 290.5,292C 288.5,291.667 286.5,291.333 284.5,291C 289.833,290.333 289.833,289.667 284.5,289C 285.167,288.667 285.833,288.333 286.5,288C 284.5,287.667 282.5,287.333 280.5,287C 285.833,286.333 285.833,285.667 280.5,285C 281.167,284.667 281.833,284.333 282.5,284C 280.5,283.667 278.5,283.333 276.5,283C 281.833,282.333 281.833,281.667 276.5,281C 277.167,280.667 277.833,280.333 278.5,280C 276.5,279.667 274.5,279.333 272.5,279C 277.833,278.333 277.833,277.667 272.5,277C 273.167,276.667 273.833,276.333 274.5,276C 272.5,275.667 270.5,275.333 268.5,275C 273.833,274.333 273.833,273.667 268.5,273C 269.167,272.667 269.833,272.333 270.5,272C 268.5,271.667 266.5,271.333 264.5,271C 269.833,270.333 269.833,269.667 264.5,269C 265.167,268.667 265.833,268.333 266.5,268C 264.5,267.667 262.5,267.333 260.5,267C 265.833,266.333 265.833,265.667 260.5,265C 261.167,264.667 261.833,264.333 262.5,264C 260.5,263.667 258.5,263.333 256.5,263C 261.833,262.333 261.833,261.667 256.5,261C 257.167,260.667 257.833,260.333 258.5,260C 256.5,259.667 254.5,259.333 252.5,259C 257.833,258.333 257.833,257.667 252.5,257C 253.167,256.667 253.833,256.333 254.5,256C 252.5,255.667 250.5,255.333 248.5,255C 253.833,254.333 253.833,253.667 248.5,253C 249.167,252.667 249.833,252.333 250.5,252C 248.5,251.667 246.5,251.333 244.5,251C 249.833,250.333 249.833,249.667 244.5,249C 245.167,248.667 245.833,248.333 246.5,248C 244.5,247.667 242.5,247.333 240.5,247C 245.833,246.333 245.833,245.667 240.5,245C 241.167,244.667 241.833,244.333 242.5,244C 240.5,243.667 238.5,243.333 236.5,243C 241.833,242.333 241.833,241.667 236.5,241C 237.167,240.667 237.833,240.333 238.5,240C 236.5,239.667 234.5,239.333 232.5,239C 237.833,238.333 237.833,237.667 232.5,237C 233.167,236.667 233.833,236.333 234.5,236C 232.5,235.667 230.5,235.333 228.5,235C 233.833,234.333 233.833,233.667 228.5,233C 229.167,232.667 229.833,232.333 230.5,232C 228.5,231.667 226.5,231.333 224.5,231C 229.833,230.333 229.833,229.667 224.5,229C 225.167,228.667 225.833,228.333 226.5,228C 224.5,227.667 222.5,227.333 220.5,227C 225.833,226.333 225.833,225.667 220.5,225C 221.167,224.667 221.833,224.333 222.5,224C 220.5,223.667 218.5,223.333 216.5,223C 221.833,222.333 221.833,221.667 216.5,221C 217.167,220.667 217.833,220.333 218.5,220C 216.5,219.667 214.5,219.333 212.5,219C 217.833,218.333 217.833,217.667 212.5,217C 213.167,216.667 213.833,216.333 214.5,216C 212.5,215.667 210.5,215.333 208.5,215C 213.833,214.333 213.833,213.667 208.5,213C 209.167,212.667 209.833,212.333 210.5,212C 209.207,211.51 207.873,211.343 206.5,211.5C 206.5,200.167 206.5,188.833 206.5,177.5 Z"/></g>
<g><path style="opacity:1" fill="#6d3a5f" d="M 186.5,204.5 C 182.386,203.174 177.886,202.507 173,202.5C 168.114,202.507 163.614,203.174 159.5,204.5C 158.186,202.105 158.186,199.605 159.5,197C 168.5,196.333 177.5,196.333 186.5,197C 187.814,199.605 187.814,202.105 186.5,204.5 Z"/></g>
<g><path style="opacity:1" fill="#a54f8e" d="M 186.5,204.5 C 177.5,205.833 168.5,205.833 159.5,204.5C 163.614,203.174 168.114,202.507 173,202.5C 177.886,202.507 182.386,203.174 186.5,204.5 Z"/></g>
<g><path style="opacity:1" fill="#d161b4" d="M 206.5,211.5 C 207.873,211.343 209.207,211.51 210.5,212C 209.833,212.333 209.167,212.667 208.5,213C 213.833,213.667 213.833,214.333 208.5,215C 210.5,215.333 212.5,215.667 214.5,216C 213.833,216.333 213.167,216.667 212.5,217C 217.833,217.667 217.833,218.333 212.5,219C 214.5,219.333 216.5,219.667 218.5,220C 217.833,220.333 217.167,220.667 216.5,221C 221.833,221.667 221.833,222.333 216.5,223C 218.5,223.333 220.5,223.667 222.5,224C 221.833,224.333 221.167,224.667 220.5,225C 225.833,225.667 225.833,226.333 220.5,227C 222.5,227.333 224.5,227.667 226.5,228C 225.833,228.333 225.167,228.667 224.5,229C 229.833,229.667 229.833,230.333 224.5,231C 226.5,231.333 228.5,231.667 230.5,232C 229.833,232.333 229.167,232.667 228.5,233C 233.833,233.667 233.833,234.333 228.5,235C 230.5,235.333 232.5,235.667 234.5,236C 233.833,236.333 233.167,236.667 232.5,237C 237.833,237.667 237.833,238.333 232.5,239C 234.5,239.333 236.5,239.667 238.5,240C 237.833,240.333 237.167,240.667 236.5,241C 241.833,241.667 241.833,242.333 236.5,243C 238.5,243.333 240.5,243.667 242.5,244C 241.833,244.333 241.167,244.667 240.5,245C 245.833,245.667 245.833,246.333 240.5,247C 242.5,247.333 244.5,247.667 246.5,248C 245.833,248.333 245.167,248.667 244.5,249C 249.833,249.667 249.833,250.333 244.5,251C 246.5,251.333 248.5,251.667 250.5,252C 249.833,252.333 249.167,252.667 248.5,253C 253.833,253.667 253.833,254.333 248.5,255C 250.5,255.333 252.5,255.667 254.5,256C 253.833,256.333 253.167,256.667 252.5,257C 257.833,257.667 257.833,258.333 252.5,259C 254.5,259.333 256.5,259.667 258.5,260C 257.833,260.333 257.167,260.667 256.5,261C 261.833,261.667 261.833,262.333 256.5,263C 258.5,263.333 260.5,263.667 262.5,264C 261.833,264.333 261.167,264.667 260.5,265C 265.833,265.667 265.833,266.333 260.5,267C 262.5,267.333 264.5,267.667 266.5,268C 265.833,268.333 265.167,268.667 264.5,269C 269.833,269.667 269.833,270.333 264.5,271C 266.5,271.333 268.5,271.667 270.5,272C 269.833,272.333 269.167,272.667 268.5,273C 273.833,273.667 273.833,274.333 268.5,275C 270.5,275.333 272.5,275.667 274.5,276C 273.833,276.333 273.167,276.667 272.5,277C 277.833,277.667 277.833,278.333 272.5,279C 274.5,279.333 276.5,279.667 278.5,280C 277.833,280.333 277.167,280.667 276.5,281C 281.833,281.667 281.833,282.333 276.5,283C 278.5,283.333 280.5,283.667 282.5,284C 281.833,284.333 281.167,284.667 280.5,285C 285.833,285.667 285.833,286.333 280.5,287C 282.5,287.333 284.5,287.667 286.5,288C 285.833,288.333 285.167,288.667 284.5,289C 289.833,289.667 289.833,290.333 284.5,291C 286.5,291.333 288.5,291.667 290.5,292C 289.833,292.333 289.167,292.667 288.5,293C 288.728,293.399 289.062,293.565 289.5,293.5C 289.5,294.167 289.167,294.5 288.5,294.5C 236.499,294.667 184.499,294.5 132.5,294C 136.37,290.298 140.037,286.464 143.5,282.5C 161.167,265.5 178.5,248.167 195.5,230.5C 202.833,231.167 206.167,227.833 205.5,220.5C 205.5,219.833 205.5,219.167 205.5,218.5C 206.468,216.393 206.802,214.059 206.5,211.5 Z"/></g>
<g><path style="opacity:1" fill="#653057" d="M 93.5,220.5 C 94.9616,221.458 96.2949,222.624 97.5,224C 132.165,224.5 166.832,224.667 201.5,224.5C 200.375,226.129 199.041,227.629 197.5,229C 164.168,229.5 130.835,229.667 97.5,229.5C 93.9924,227.575 92.659,224.575 93.5,220.5 Z"/></g>
<g><path style="opacity:1" fill="#793a68" d="M 205.5,220.5 C 206.167,227.833 202.833,231.167 195.5,230.5C 162.662,230.832 129.996,230.498 97.5,229.5C 130.835,229.667 164.168,229.5 197.5,229C 199.041,227.629 200.375,226.129 201.5,224.5C 202.5,222.833 203.833,221.5 205.5,220.5 Z"/></g>
<g><path style="opacity:1" fill="#753f6a" d="M -0.5,284.5 C 1.24337,289.908 4.91003,293.242 10.5,294.5C 50.3312,295.333 90.3312,295.833 130.5,296C 129.29,297.039 128.29,298.206 127.5,299.5C 88.1667,299.5 48.8333,299.5 9.5,299.5C 5.29934,297.971 1.966,295.304 -0.5,291.5C -0.5,289.167 -0.5,286.833 -0.5,284.5 Z"/></g>
<g><path style="opacity:1" fill="#8f4d81" d="M 299.5,284.5 C 299.5,286.5 299.5,288.5 299.5,290.5C 297.413,294.922 294.08,297.922 289.5,299.5C 235.5,299.5 181.5,299.5 127.5,299.5C 128.29,298.206 129.29,297.039 130.5,296C 90.3312,295.833 50.3312,295.333 10.5,294.5C 103.333,295.322 196,295.322 288.5,294.5C 289.167,294.5 289.5,294.167 289.5,293.5C 294.752,292.579 298.085,289.579 299.5,284.5 Z"/></g>
</svg>
